<?xml version="1.0" encoding="utf-8"?>
<!-- Generator: Adobe Illustrator 21.1.0, SVG Export Plug-In . SVG Version: 6.00 Build 0)  -->
<svg version="1.1" id="Layer_1" xmlns="http://www.w3.org/2000/svg" xmlns:xlink="http://www.w3.org/1999/xlink" x="0px" y="0px"
	 viewBox="0 0 78 130" style="enable-background:new 0 0 78 130;" xml:space="preserve">
<style type="text/css">
	.st0{fill:#FFFFFF;}
</style>
<g>
	<path class="st0" d="M54.6,78.2c0,20.9-8.8,26.2-26.8,35c2.3,1.5,5.4,3.4,10.7,5.9c13.8-6.5,27.1-15.1,27.1-37.9V32.9H54.6V78.2z
		 M44.1,32.9H11.4v9.6h21.7v30.7c0,14-0.9,15.3-19.1,23.5c1.3,3.2,3.1,6.3,5.5,9.2C40.1,96.7,44.1,92,44.1,76.1V32.9z M15.7,11.2
		v8.5c0,2.2-1.3,3.7-3.9,3.7h-0.4v-1.8h0.3c1.2,0,1.9-0.6,1.9-1.9V13h-1.9v-1.8H15.7z M19.4,21.6h1.9V11.2h2v10.2
		c0,1.3-0.7,1.9-2,1.9h-1.9c-1.3,0-2-0.7-2-1.9V11.2h2V21.6z M28.8,18.7v-7.4h2v7.5c0,3.4-1.8,4.6-4.9,4.6h-1V11.2h2v10.1H27
		C28.3,21.4,28.8,20.2,28.8,18.7z M34.5,13.1v3.2h2.3L36.4,18h-2v3.5h3l-0.3,1.8h-4.6V11.2h4.5l0.3,1.8H34.5z M42.6,11.2h1.9v12.1
		h-1.9v-4.1L40.7,15h-0.1v8.3h-1.9V11.2h1.9l1.9,4.6h0.1V11.2z M51.5,13.1h-1.9v10.3h-2V13.1h-1.9l0.3-1.8h5.2L51.5,13.1z
		 M54.5,21.6h1.9V11.3h2v10.2c0,1.3-0.7,1.9-2,1.9h-1.9c-1.3,0-2-0.7-2-1.9V11.3h2V21.6z M59.9,19.4h2v2.4h1.8v-1.7
		c0-0.8-0.2-1.2-0.8-1.6L61,17.3c-0.7-0.5-1-1.3-1-1.9v-2.2c0-1.3,0.8-1.9,1.9-1.9h1.9c1.3,0,1.9,0.7,1.9,1.9v1.5l-1.9,0.5v-2.4
		h-1.7v1.8c0,0.6,0.2,1,0.8,1.4l1.8,1.1c0.8,0.5,1.2,1.2,1.2,2.2v2.3c0,1.3-0.8,1.8-1.9,1.8h-1.8c-1.3,0-2-0.5-2-1.8V19.4z"/>
</g>
</svg>
