<?xml version="1.0" standalone="no"?><!DOCTYPE svg PUBLIC "-//W3C//DTD SVG 1.1//EN" "http://www.w3.org/Graphics/SVG/1.1/DTD/svg11.dtd"><svg t="1561462160819" class="icon" viewBox="0 0 1024 1024" version="1.1" xmlns="http://www.w3.org/2000/svg" p-id="6928" width="32" height="32" xmlns:xlink="http://www.w3.org/1999/xlink"><defs><style type="text/css"></style></defs><path d="M438.20018 473.459219c-124.815727 5.753027-225.725998 72.613808-225.725997 156.053172 0 83.267449 100.909248 145.866159 225.725997 140.028196 124.903731-5.666046 226.024803-83.863013 226.024803-167.174463 0-83.181491-101.122095-134.659933-226.024803-128.906905zm85.036745 209.79005c-38.225603 49.346895-113.863281 73.423243-187.310059 33.621748-34.964326-18.920932-33.663704-56.208163-33.663704-56.208162s-14.530948-117.572766 111.028722-132.273583C539.024493 513.815345 561.462528 633.859395 523.236925 683.249269zM439.011662 604.498694c-8.011464 5.794983-9.652847 16.959254-5.284353 23.906479 4.195555 7.117095 13.976316 7.92653 21.903869 2.002611 7.754614-6.137791 10.780531-16.832364 6.562463-23.90648-4.178159-6.947226-13.850449-8.949836-23.181979-2.00261zM379.521756 620.648512c-23.436782 2.428306-40.228213 22.883173-40.228213 42.443671s18.878976 33.111119 42.338271 30.343076c23.330358-2.642177 42.336224-20.711717 42.336224-40.228213 0-19.603477-17.513886-35.115776-44.446282-32.558534zM818.999023 69.351508 202.418152 69.351508c-74.531484 0-134.957715 60.384275-134.957714 134.959761l0 616.537891c0 74.575486 60.426231 134.957715 134.957714 134.957715l616.581894 0c74.531484 0 134.957715-60.382229 134.957715-134.957715L953.957761 204.311269c-0.001023-74.575486-60.427254-134.959761-134.958738-134.959761zm-43.210128 588.329432c-51.455929 109.303428-221.166145 162.485675-346.897731 152.643516-119.511931-9.375531-273.176706-49.091068-289.051255-193.72312 0 0-8.41567-65.49876 55.121411-150.258189 0 0 91.322915-127.543861 197.706851-163.934676 106.470917-36.222993 118.872365 25.056676 118.872365 61.278645-5.625114 30.765701-16.236799 48.836265 23.73661 36.434817 0 0 104.657618-48.580438 147.740856-5.498224 34.729989 34.773991 5.731538 82.58695 5.731538 82.58695s-14.424524 15.97995 15.236006 21.689998c29.743418 5.966898 123.259278 49.303916 71.803349 158.780283zm-103.190197-302.005288c-11.399631 0-20.518313-9.204639-20.518313-20.497847 0-11.505032 9.117658-20.751626 20.518313-20.751626 0 0 128.289851-23.736611 112.949468 114.118084 0 0.853437-0.084934 1.49198-0.257873 2.216481-1.449002 9.759271-10.05603 17.258059-20.156062 17.258059-11.441587 0-20.709671-9.119705-20.709671-20.539802 0 0.001023 20.325931-92.131327-71.825862-71.803349zm216.882586 110.2418l-0.169869 0c-3.388167 23.351847-14.978133 25.184589-28.763091 25.184589-16.492626 0-29.830399-10.354835-29.830399-26.847462 0-14.317077 5.92392-28.848025 5.92392-28.848025 1.74576-6.008854 15.702634-43.466977-9.204639-99.376334-45.639456-76.66303-137.513934-77.771271-148.359956-73.381288-10.952446 4.261047-27.102265 6.434549-27.102265 6.434549-16.597003 0-29.936823-13.507642-29.936823-29.915333 0-13.806447 9.227152-25.440415 21.817912-29.017894 0 0 0.298805-0.468674 0.7245-0.554632 0.916882-0.213871 1.832741-1.108241 2.834559-1.193175 12.763698-2.472308 58.403155-11.422144 102.764501-1.023306 79.345116 18.536168 188.307783 95.241154 139.30165 258.538311z" p-id="6929" fill="#2c2c2c"></path></svg>