<?xml version="1.0" encoding="utf-8"?>
<!-- Generator: Adobe Illustrator 19.1.0, SVG Export Plug-In . SVG Version: 6.00 Build 0)  -->
<svg version="1.1" id="Ebene_1" xmlns="http://www.w3.org/2000/svg" xmlns:xlink="http://www.w3.org/1999/xlink" x="0px" y="0px"
	 viewBox="0 -2 140 35" style="enable-background:new 0 -2 140 35;" xml:space="preserve">
<style type="text/css">
	.st0{fill:#4F4F4F;}
	.st1{fill:none;}
</style>
<g>
	<g>
		<path class="st0" d="M32.7,16.9c-0.5,0-1.4,0-1.7,0.1c-0.1,1.2-0.4,3.3-0.5,4.3c0.2,0.1,1.1,0.1,1.5,0.1c1.1,0,2.2-0.7,2.3-2.3
			C34.3,18,33.8,16.9,32.7,16.9z"/>
		<path class="st0" d="M69.9,12.3c-0.6,0-1.3,0.2-1.9,0.9c-0.8,1-1.4,2.7-1.4,4.9c0,0.7,0.1,1.7,0.4,2.3c0.3,0.6,0.9,1.1,1.9,1.1
			s1.7-0.5,2.2-1.2c0.7-0.8,1-2.6,1-4.7c0-0.9-0.2-2.1-0.7-2.7C71.1,12.5,70.7,12.3,69.9,12.3z"/>
		<path class="st0" d="M42.6,18.2c0.4,0,2.2,0,2.8,0c-0.3-1.4-0.5-2.7-0.8-4.7C44.6,13.5,42.9,17.5,42.6,18.2z"/>
		<path class="st0" d="M115,9.9c-0.7-1.4-1.7-2.8-5.1-3.7S89.8,1.4,69.7,1.4s-36.8,4-40.2,4.9s-4.4,2.4-5.1,3.7
			c-1.1,2-1.7,4.8-1.7,7s0.6,5,1.7,7c0.7,1.4,1.7,2.8,5.1,3.7c3.4,0.8,20.1,4.8,40.2,4.8s36.8-4,40.2-4.9c3.4-0.9,4.4-2.4,5.1-3.7
			c1.1-2,1.7-4.8,1.7-7C116.7,14.8,116.1,11.9,115,9.9z M32.4,23c-1.3,0-2.8,0-3.4,0s-1.2,0-2.3,0.1c0.3-2.5,1-7.3,1.1-9
			c0.8-0.7,2-1.3,3.6-1.3c-0.1,0.9-0.2,1.5-0.3,2.6c0.3,0,1,0,1.3,0c1.1,0,1.9-0.1,1.9-1.7c0-0.2,0-0.4,0-0.5
			c-0.1-0.5-0.4-0.9-1.3-0.9c-4.6,0-6.5,0.5-7,0.7c0.1-0.6,0.3-1.7,0.4-2.2c0.7,0,2.5,0.1,3.5,0.1c0.8,0,2.4-0.1,3.9-0.1
			c3,0,4.1,0.9,4.1,2.5c-0.1,2.1-2.3,2.6-2.6,2.7v0.1c0.9,0,2.7,0.9,2.6,3.3C37.8,22,35.4,23,32.4,23z M51,23c-0.9-0.1-3-0.1-4.6,0
			c-0.1-0.5-0.3-1.7-0.7-3.1c-0.6,0-3.3,0-3.8,0c-0.3,0.8-0.8,2.2-0.9,3.1c-1.3-0.1-2-0.1-3.5,0c0.9-1.2,2.2-3.8,3.3-5.9
			c0.9-1.8,2-4,2-4.3s-0.1-0.5-0.5-0.5c-0.3,0-0.6,0-1,0c0.1-0.5,0.1-1.1,0.2-1.6c2.2,0.1,3.8,0.2,6,0c0.1,1.7,1.4,7.8,2,9.3
			c0.3,0.9,1,1.5,1.7,1.5L51,23z M61.8,22.8C61.7,23,61.5,23,61.2,23c-0.9,0-5.2-0.1-9.2,0c0.3-2.3,1.2-7.8,1.4-9.4
			c0.1-1.2-0.2-1.3-0.8-1.3c-0.3,0-0.3,0-0.6,0c0-0.4,0.1-1.2,0.2-1.7c1.9,0.1,3.3,0.1,5.2,0c-0.3,1.8-1.1,6.9-1.5,10.5
			c0.3,0,1.4,0.1,1.8,0.1c1.4,0,3.3-0.7,3.6-2.2h1.2C62.2,20.6,61.9,22.6,61.8,22.8z M72.7,22.2c-1.3,0.7-2.6,0.9-3.9,0.9
			c-3.2,0-5.8-1-5.8-5.2c0-3.7,1.5-5.7,3.5-6.6c1.1-0.5,2.4-0.7,3.6-0.7c2.2,0,3.7,0.4,4.7,1.7c0.7,0.9,1,1.9,1,3.6
			C75.8,19.4,74.4,21.2,72.7,22.2z M83.7,12.2c-1.2,0-1.8,0.5-2.4,1.5s-0.9,2.4-0.9,4c0,0.9,0.1,1.7,0.5,2.4
			c0.4,0.9,1.4,1.2,2.5,1.2s2.7-0.6,3.8-1.8L87,22.1c-1.3,0.8-3.1,1.1-4.4,1.1c-2.3,0-5.7-0.2-5.7-5.2c0-3.6,1.4-5.7,3.6-6.8
			c1-0.5,2.4-0.6,3.5-0.6c1,0,2.7,0.2,3.2,0.2c0.3,0,0.5,0,0.7,0l-0.5,3.9h-1.8c0-0.2,0-0.4,0-0.5C85.5,13.3,85.2,12.2,83.7,12.2z
			 M98.2,14.6h-1.8c0-0.2,0-0.4,0-0.5c0-0.8-0.2-1.9-1.8-1.9c-1.2,0-1.8,0.5-2.4,1.5s-0.9,2.4-0.9,4c0,0.9,0.1,1.7,0.5,2.4
			c0.4,0.9,1.4,1.2,2.5,1.2s2.7-0.6,3.8-1.8l-0.2,2.6c-1.3,0.8-3.1,1.1-4.4,1.1c-2.3,0-5.7-0.2-5.7-5.2c0-3.6,1.4-5.7,3.6-6.8
			c1-0.5,2.4-0.6,3.6-0.6c1,0,2.7,0.2,3.2,0.2c0.3,0,0.5,0,0.7,0L98.2,14.6z M112.7,12.9c-3.3-0.6-5.7-1-7.4-0.5
			c-0.3,0.1-0.5,0.2-0.7,0.4c-0.2,0.1-0.4,0.3-0.6,0.5c-0.8,1-1.4,2.7-1.4,4.9c0,0.7,0.1,1.7,0.4,2.3c0.3,0.6,0.9,1.1,1.9,1.1
			s1.7-0.5,2.2-1.2c0.7-0.8,1-2.6,1-4.7c0-0.9-0.2-2.1-0.7-2.7l-0.1-0.1c2.1,0.1,3.5,0.9,4.4,1.7c0.1,0.4,0.1,0.9,0.1,1.4
			c0,3.5-1.4,5.4-3.1,6.3c-1.3,0.7-2.6,0.9-3.9,0.9c-3.2,0-5.8-1-5.8-5.2c0-3.7,1.5-5.7,3.5-6.6c1.1-0.5,2.4-0.7,3.6-0.7h0.3
			c1.3,0,2.4,0.1,3.1,0.1c1,0,2.6,0,3.4-0.1C112.8,11.2,112.7,12.3,112.7,12.9z"/>
	</g>
	<rect y="-2" class="st1" width="140" height="35"/>
</g>
</svg>
