<?xml version="1.0" encoding="utf-8"?>
<!-- Generator: Adobe Illustrator 21.1.0, SVG Export Plug-In . SVG Version: 6.00 Build 0)  -->
<svg version="1.1" id="Layer_1" xmlns="http://www.w3.org/2000/svg" xmlns:xlink="http://www.w3.org/1999/xlink" x="0px" y="0px"
	 viewBox="0 0 105.6 18.2" style="enable-background:new 0 0 105.6 18.2;" xml:space="preserve">
<style type="text/css">
	.st0{fill:#4F4F4F;}
</style>
<g>
	<g id="Layer_1_14_">
		<g>
			<g>
				<path class="st0" d="M28.7,16.6L28.7,16.6c0.9,1,2.3,1.6,4.1,1.6h0.9c3.7,0,6.5-0.9,6.5-5.2v-2.6c0-4-1.8-5.4-6.3-5.4h-1.4
					c-2,0-3.1,0.7-3.6,1.4h-0.1V0h-2.8v17.8h2.8V16.6z M28.7,10.2c0-3,1.9-3,4.5-3h0.3c2.5,0,3.9,0.4,3.9,3.3v2c0,2.4-0.6,3.4-4,3.4
					h-0.6c-3.2,0-4-0.9-4-3.3V10.2z"/>
				<path class="st0" d="M74.1,5.3h-3.8V4.1c0-1.1,0.7-2,2.2-2h2.8V0h-3.7c-2.2,0-4.1,1.2-4.1,4.1v1.1H66v2.3h1.5v10.7h2.8V7.5H74
					L74.1,5.3L74.1,5.3z"/>
				<path class="st0" d="M57.9,14.1c0,3,1.9,4.1,4.1,4.1h3.5v-2.3h-2.8c-1.5,0-2-0.8-2-1.9V7.5h3.8V5.2h-3.8V0h-2.8v5.3h-1.5v2.3
					h1.5V14.1z"/>
				<rect x="90.1" class="st0" width="2.8" height="2.8"/>
				<rect x="90.1" y="4.9" class="st0" width="2.8" height="13.3"/>
				<path class="st0" d="M47.3,18.2h2.5c3.4,0,4.9-1.1,5.3-3l-2.5-0.8c-0.4,1.2-1.4,1.5-3.6,1.5h-0.6c-3.6,0-4.2-0.5-4.2-3.3l0,0
					h11.1v-2.5c0-4.4-2.3-5.3-6-5.3h-1.4c-2.9,0-6.4,0.5-6.4,5v3.1C41.6,17.5,44.7,18.2,47.3,18.2z M44.3,10c0-2.5,1.2-2.8,4.1-2.8
					h0.6c3.3,0,3.7,0.8,3.7,2.5v0.7h-8.3L44.3,10L44.3,10z"/>
				<path class="st0" d="M81.4,4.9h-1c-3.8,0-5.5,1.2-5.6,2.9l2.7,0.9c0.1-1.2,1.5-1.6,3.6-1.6c3.1,0,3.8,0.2,3.8,2.4v1.2h-0.1
					c-0.7-0.9-1.7-1.2-4.1-1.2h-1.1c-3.6,0-5.7,0.9-5.7,3.7v0.8c0,2.3,0.9,4,4.6,4h2.7c2.7,0,3-0.4,3.5-1.2h0v1.2h2.8V9.7
					C87.7,6,85.2,4.9,81.4,4.9z M84.9,14.2c0,1.2-0.9,1.7-4.2,1.7H80c-2.8,0-3.2-0.5-3.2-1.6v-0.7c0-1.2,0.7-1.7,3-1.7h1.2
					c2.1,0,3.8,0.4,3.8,1.8V14.2z"/>
				<path class="st0" d="M101.5,4.9c-1.2,0-2.5,0.5-3.3,1.8h-0.1V4.9h-2.7v13.3h2.8v-8c0-1.6,0.9-3,3.1-3c1.6,0,2.3,0.4,2.5,0.9
					l1.8-1.2C105.1,5.7,104,4.9,101.5,4.9z"/>
				<polygon class="st0" points="20.7,0 13.4,0 13.4,3.7 9.6,3.7 17.1,12.5 24.6,3.7 20.7,3.7 				"/>
				<polygon class="st0" points="0,14.5 3.9,14.5 3.9,18.1 11.1,18.1 11.1,14.5 15,14.5 7.5,5.7 				"/>
			</g>
		</g>
	</g>
</g>
</svg>
