<svg id="Ebene_1" data-name="Ebene 1" xmlns="http://www.w3.org/2000/svg" viewBox="0 0 384 113.4"><defs><style>.cls-1{fill:#4f4f4f;}</style></defs><title>de-cecco-gray</title><g id="Livello_1" data-name="Livello 1"><path class="cls-1" d="M22.7,0.2H53.2a9.92,9.92,0,0,1,9.9,9.9v93.1a9.86,9.86,0,0,1-9.9,9.9H22.7V0.2M40.3,98.9h2.8c1.9,0,3-1.5,3-3.4V17.9c0-1.9-1.1-3.4-3-3.4H40.3V98.9Z"/><polyline class="cls-1" points="104.2 25.2 104.2 10.6 75.3 10.6 75.3 113.2 104.2 113.2 104.2 98.6 93.3 98.6 93.3 58.1 104.2 58.1 104.2 43.6 93.3 43.6 93.3 25.2 104.2 25.2"/><polyline class="cls-1" points="200.9 25.2 200.9 10.6 172.1 10.6 172.1 113.2 200.9 113.2 200.9 98.6 190 98.6 190 58.1 200.9 58.1 200.9 43.6 190 43.6 190 25.2 200.9 25.2"/><path class="cls-1" d="M147.8,97.1a1.75,1.75,0,0,0,1.7,1.7l12.3,0.1v14.5H140.4a10.76,10.76,0,0,1-10.8-10.8V10.8A10.76,10.76,0,0,1,140.4,0h21.4V14.5H149.5a1.75,1.75,0,0,0-1.7,1.7V97.1"/><path class="cls-1" d="M228.6,97.1a1.75,1.75,0,0,0,1.7,1.7l12.3-.1v14.6l-21.4.1a10.76,10.76,0,0,1-10.8-10.8V21.5a10.82,10.82,0,0,1,10.8-10.8l21.4,0.1V25.4H230.3a1.75,1.75,0,0,0-1.7,1.7v70"/><path class="cls-1" d="M270.6,97.1a1.75,1.75,0,0,0,1.7,1.7l12.3-.1v14.6l-21.4.1a10.76,10.76,0,0,1-10.8-10.8V21.5a10.76,10.76,0,0,1,10.8-10.8l21.4,0.1V25.4H272.3a1.75,1.75,0,0,0-1.7,1.7v70"/><path class="cls-1" d="M314,98.8a1.77,1.77,0,0,1-1.8-1.7V27a1.77,1.77,0,0,1,1.8-1.7l1.3-.1a1.77,1.77,0,0,1,1.8,1.7V97.1a1.71,1.71,0,0,1-1.8,1.7H314m10.2,14.5a11,11,0,0,0,11.1-10.8V21.4a11,11,0,0,0-11.1-10.8H305.1A11,11,0,0,0,294,21.4v81.1a11,11,0,0,0,11.1,10.8h19.1Z"/><path class="cls-1" d="M342.6,19.9a9.3,9.3,0,1,0,9.3-9.3,9.35,9.35,0,0,0-9.3,9.3m2.1,0a7.2,7.2,0,1,1,7.2,7.2A7.23,7.23,0,0,1,344.7,19.9Z"/><path class="cls-1" d="M348.1,14.9h5a2.77,2.77,0,0,1,3.1,2.8,2.21,2.21,0,0,1-1.5,2.3c0.8,0.4,1.2.7,1.2,2.5,0,1.4,0,1.8.4,2v0.3H354a8.75,8.75,0,0,1-.2-2c0-1.3-.1-1.9-1.6-1.9h-2.1v3.8h-2V14.9m4.4,4.3c1.1,0,1.6-.4,1.6-1.3a1.22,1.22,0,0,0-1.4-1.3h-2.6v2.6h2.4Z"/></g></svg>