<?xml version="1.0" encoding="utf-8"?>
<!-- Generator: Adobe Illustrator 21.1.0, SVG Export Plug-In . SVG Version: 6.00 Build 0)  -->
<svg version="1.1" id="Layer_1" xmlns="http://www.w3.org/2000/svg" xmlns:xlink="http://www.w3.org/1999/xlink" x="0px" y="0px"
	 viewBox="0 0 130.1 20.4" style="enable-background:new 0 0 130.1 20.4;" xml:space="preserve">
<style type="text/css">
	.st0{fill:#4F4F4F;}
</style>
<g>
	<g>
		<polygon class="st0" points="84.9,13.9 127.7,13.9 126,17.1 3,17.1 4.7,13.9 		"/>
		<polygon points="4.9,14.3 45.6,14.3 44.4,16.7 3.7,16.6 		"/>
		<polygon class="st0" points="45.6,14.3 86.3,14.3 85.1,16.7 44.4,16.6 		"/>
		<polygon points="86.3,14.3 126.9,14.3 125.7,16.7 85.1,16.7 		"/>
		<path class="st0" d="M65.9,8.1h1.7L67.7,6L65.9,8.1z M70.2,12.3h-2.8l0.1-2.1H64l-1.7,2.1h-2.8l8.3-9.2h2.5L70.2,12.3z M57.8,12.3
			h-2.7l4.2-9.2H62L57.8,12.3z M56.3,5.1h-3.4c-0.8,0-1.5,0.3-2,0.8c-0.4,0.4-0.9,1-1.2,1.9c-0.1,0.2-0.2,0.4-0.4,0.8
			c-0.1,0.4-0.2,0.6-0.2,0.9c0,0.5,0.4,0.8,1.2,0.8h3.6l-1,2.1h-3.4c-1.4,0-2.4-0.4-2.9-1.1c-0.2-0.3-0.4-0.8-0.4-1.2
			c0-0.6,0.2-1.4,0.6-2.2c1.4-3.1,3.6-4.6,6.6-4.6h3.7L56.3,5.1z M46.9,5.1h-3.4c-0.8,0-1.5,0.3-2,0.8c-0.4,0.4-0.9,1-1.2,1.9
			C40.2,8,40.1,8.2,40,8.6c-0.1,0.4-0.2,0.6-0.2,0.9c0,0.5,0.4,0.8,1.2,0.8h3.6l-1,2.1h-3.4c-1.4,0-2.4-0.4-2.9-1.1
			c-0.2-0.3-0.4-0.8-0.4-1.2c0-0.6,0.2-1.4,0.6-2.2c1.4-3.1,3.6-4.6,6.6-4.6h3.7L46.9,5.1z M37,5.2h-3.4c-1,0-1.9,0.5-2.5,1.4h5.2
			l-1,2.1h-5.3c-0.1,0.4-0.2,0.7-0.2,0.9c0,0.1,0,0.3,0.1,0.3c0.1,0.2,0.5,0.3,1.1,0.3h3.6l-1,2.1h-3.4c-1.4,0-2.4-0.4-2.9-1.1
			c-0.2-0.3-0.4-0.8-0.4-1.2c0-0.6,0.2-1.4,0.6-2.2c0.8-1.7,1.7-2.9,2.9-3.7c1-0.7,2.3-1,3.8-1h3.7L37,5.2z M23.8,5.2h-2.1L21,6.8
			h1.8c0.6,0,1,0,1.2-0.1c0.3-0.1,0.6-0.4,0.8-0.8c0.1-0.3,0.1-0.4,0.1-0.5C24.7,5.3,24.4,5.2,23.8,5.2z M24.5,8.6l0.6,3.7h-2.8
			l-0.5-3.4H20l-1.5,3.4h-2.6l4.2-9.2H25c1.8,0,2.7,0.5,2.7,1.6c0,0.4-0.1,0.9-0.4,1.4C26.7,7.4,25.8,8.2,24.5,8.6z M17.5,5.2h-3.3
			c-1.2,0-2.1,0.5-2.8,1.5h5.4l-0.9,2.1h-5.5l-1.6,3.5H6.1l2-4.4C8.6,6.8,9,6.1,9.3,5.6c0.6-0.8,1.2-1.4,2-1.8
			c1-0.5,2.2-0.7,3.7-0.7h3.4L17.5,5.2z M80.2,8.7l0.6,3.7h-2.8L77.6,9h-1.8l-1.5,3.3h-2.6l4.2-9.1h4.9c1.8,0,2.7,0.5,2.7,1.6
			c0,0.4-0.1,0.9-0.4,1.4C82.5,7.4,81.5,8.3,80.2,8.7z M79.6,5.3h-2.1l-0.7,1.6h1.8c0.6,0,1,0,1.2-0.1c0.3-0.1,0.6-0.4,0.8-0.8
			c0.1-0.3,0.1-0.4,0.1-0.5C80.5,5.4,80.2,5.3,79.6,5.3z M93.7,7.9c-1.4,3.1-3.7,4.6-6.9,4.6c-2.3,0-3.5-0.8-3.5-2.4
			c0-0.7,0.2-1.5,0.6-2.5c0.7-1.5,1.5-2.6,2.6-3.4C87.7,3.4,89.2,3,90.8,3c2.4,0,3.6,0.8,3.6,2.3C94.4,6,94.2,6.8,93.7,7.9z
			 M90.2,5.1c-1.5,0-2.7,0.9-3.6,2.8c-0.4,0.8-0.5,1.4-0.5,1.8c0,0,0,0.1,0,0.1c0.1,0.5,0.5,0.7,1.3,0.7c0.9,0,1.6-0.3,2.2-0.8
			c0.5-0.4,0.9-1.1,1.3-2c0.3-0.7,0.5-1.3,0.5-1.7c0-0.2,0-0.3-0.1-0.5C91.3,5.2,90.9,5.1,90.2,5.1z M105,5.3h-4.9
			c-0.9,0-1.4,0.3-1.7,1c0,0.1-0.1,0.2-0.1,0.3c0,0.2,0.2,0.3,0.6,0.3h2.5c1,0,1.6,0.1,2,0.4c0.3,0.2,0.5,0.6,0.5,1
			c0,0.4-0.1,0.9-0.4,1.4c-0.4,1-1,1.6-1.8,2.1c-0.7,0.4-1.7,0.6-2.8,0.6h-5.6l1-2.1h5c0.4,0,0.8,0,1-0.1c0.3-0.1,0.5-0.3,0.6-0.6
			C101,9.2,101,9.1,101,9c0,0,0,0,0,0c-0.1-0.1-0.3-0.1-0.7-0.1H98c-1.7,0-2.5-0.5-2.5-1.6c0-0.4,0.1-0.8,0.3-1.3
			c0.9-1.8,2.4-2.8,4.7-2.8h5.5L105,5.3z M115.6,5.3h-4.9c-0.9,0-1.4,0.3-1.7,1c0,0.1-0.1,0.2-0.1,0.3c0,0.2,0.2,0.3,0.6,0.3h2.5
			c1,0,1.6,0.1,2,0.4c0.3,0.2,0.5,0.6,0.5,1c0,0.4-0.1,0.9-0.4,1.4c-0.4,1-1,1.6-1.8,2.1c-0.7,0.4-1.7,0.6-2.8,0.6h-5.6l1-2.1h5
			c0.4,0,0.8,0,1-0.1c0.3-0.1,0.5-0.3,0.6-0.6c0.1-0.2,0.1-0.4,0.1-0.4c0,0,0,0,0,0c-0.1-0.1-0.3-0.1-0.7-0.1h-2.2
			c-1.7,0-2.5-0.5-2.5-1.6c0-0.4,0.1-0.8,0.3-1.3c0.8-1.8,2.4-2.8,4.6-2.8h5.5L115.6,5.3z M124.4,12.3h-2.7l0.1-2h-3.5l-1.7,2h-2.8
			l8.3-9.1h2.5L124.4,12.3z M120.1,8.2h1.7L122,6L120.1,8.2z"/>
	</g>
</g>
</svg>
