<?xml version="1.0" encoding="utf-8"?>
<!-- Generator: Adobe Illustrator 22.0.1, SVG Export Plug-In . SVG Version: 6.00 Build 0)  -->
<svg version="1.1" id="Layer_1" xmlns="http://www.w3.org/2000/svg" xmlns:xlink="http://www.w3.org/1999/xlink" x="0px" y="0px"
	 viewBox="0 0 85.7 38.4" style="enable-background:new 0 0 85.7 38.4;" xml:space="preserve">
<style type="text/css">
	.st0{fill:#4F4F4F;}
</style>
<path class="st0" d="M37,0c-0.9,0-1.9,0-2.9,0.1c-5.9,0.3-14.5,1.7-21.6,6.8c-0.6,0.4-9.9,6.2-12,15.6c-1.1,5-0.2,10.1,3,15.1
	c0.3,0.4,0.7,0.8,1.6,0.8H84c1.6,0,1.6-1.3,1.6-1.7c-2-11.1-9-21-18.2-27.4c-6.1-4.2-13.5-7.2-22-8.7C45.4,0.6,41.9,0,37,0L37,0z"/>
<g>
	<path d="M12.2,10.2c0,0,0.3,0,0.4,0c0,0,0.1,0,0.1,0.1c0.2,0.5,1.6,4.4,1.6,4.5c0.1,0.2,0.1,0.1,0.1,0s0-4,0-4.5c0,0,0-0.1,0.1-0.1
		c0,0,0.3,0,0.4,0c0,0,0.1,0,0.1,0.1c0,0,0,5.8,0,6.4c0,0,0,0.1-0.1,0.1c-0.1,0-0.4,0-0.4,0s-0.1,0-0.1,0c-0.2-0.4-1.6-4.4-1.6-4.6
		c0-0.1-0.1-0.1-0.1,0c0,0.1,0,4,0,4.5c0,0,0,0.1-0.1,0.1s-0.3,0-0.4,0c0,0-0.1,0-0.1-0.1C12.1,16,12.1,10.2,12.2,10.2
		C12.1,10.2,12.1,10.2,12.2,10.2z"/>
	<path d="M17.3,14.5c-0.1,0-0.2,0-0.4,0c-0.2,0-0.7,0.2-0.7,0.8c0,0.6,0.4,0.8,0.6,0.8c0.2,0,0.4-0.1,0.4-0.1c0.1,0,0.1,0,0.1-0.1
		C17.4,15.6,17.4,14.6,17.3,14.5C17.4,14.5,17.4,14.5,17.3,14.5z M17.4,13.4c0-0.4-0.2-0.8-0.6-0.8c-0.4,0-0.5,0.2-0.6,0.2
		c0,0-0.1,0-0.1,0s-0.1-0.5-0.1-0.6c0-0.1,0-0.1,0.1-0.1c0.1-0.1,0.4-0.2,0.8-0.2c0.8,0,1.2,0.3,1.2,1.7c0,0,0,2.3,0,2.4
		c0,0.3,0.1,0.5,0.1,0.5c0,0,0,0.1,0,0.1c-0.1,0-0.1,0-0.3,0c-0.5,0-0.5,0.1-0.9,0.1c-0.9,0-1.3-0.6-1.3-1.5c0-1.2,0.7-1.6,1.3-1.6
		c0.2,0,0.4,0,0.4,0c0.1,0,0.1,0,0.1-0.1C17.4,13.7,17.4,13.4,17.4,13.4z"/>
	<path d="M18.8,12.7c-0.1,0-0.3,0-0.4,0c0,0-0.1,0-0.1-0.1c0-0.1,0-0.2,0-0.2c0,0,0-0.1,0-0.1c0.2-0.1,0.7-0.6,0.7-1.4
		c0,0,0-0.1,0.1-0.1c0.1,0,0.2,0,0.3,0c0.1,0,0.1,0,0.1,0.1c0,0,0,0.9,0,1.1c0,0,0,0.1,0,0.1c0.1,0,0.5,0,0.5,0c0,0,0.1,0,0.1,0.1
		c0,0,0,0.4,0,0.6c0,0,0,0.1-0.1,0.1c0,0-0.4,0-0.5,0c0,0-0.1,0-0.1,0.1c0,0,0,2.5,0,2.5c0,0.6,0.1,0.7,0.3,0.7c0.1,0,0.2,0,0.3-0.1
		c0,0,0.1,0,0.1,0s0,0.4,0.1,0.6c0,0.1,0,0.1-0.1,0.1c-0.1,0-0.3,0.1-0.4,0.1c-0.3,0-0.5-0.1-0.6-0.3c-0.2-0.2-0.2-0.6-0.2-1.1
		C18.8,15.4,18.8,12.8,18.8,12.7C18.9,12.8,18.8,12.7,18.8,12.7z"/>
	<path d="M24,12c0,0,0.4,0,0.5,0c0,0,0.1,0,0.1,0.1c0,0.1,0,0.4,0,0.5c0,0.1,0,0.1,0.1,0c0.1-0.2,0.2-0.3,0.3-0.4
		c0.1-0.2,0.3-0.2,0.5-0.2c0,0,0.1,0,0.1,0c0,0,0.1,0,0.1,0.1c0,0,0,0.7,0,0.7c0,0,0,0.1-0.1,0.1c0,0-0.1,0-0.1,0
		c-0.3,0-0.6,0.3-0.7,0.8c-0.1,0.2-0.1,0.5-0.1,0.8c0,0,0,2.2,0,2.2c0,0,0,0.1-0.1,0.1c-0.1,0-0.4,0-0.5,0c0,0-0.1,0-0.1-0.1
		C23.9,16.1,23.9,12.1,24,12C23.9,12.1,23.9,12,24,12z"/>
	<path d="M28.9,10c0,0,0.4,0,0.5,0c0,0,0.1,0,0.1,0s0,5.2,0,5.2c0,0.5,0.1,0.7,0.4,0.7c0.1,0,0.1,0,0.2,0c0,0,0.1,0,0.1,0
		c0,0,0,0.4,0,0.6c0,0,0,0.1-0.1,0.1c-0.1,0-0.2,0.1-0.3,0.1c-0.4,0-0.8-0.3-0.8-1.3C28.8,15.5,28.8,10.1,28.9,10
		C28.8,10.1,28.8,10,28.9,10z"/>
	<path d="M32.1,10.2c0,0,0.4,0,0.5,0c0.1,0,0.1,0,0.1,0.1c0.1,0.5,1,3.8,1,3.9c0,0.1,0.1,0.1,0.1,0c0-0.1,0.9-3.4,1-3.9
		c0,0,0.1-0.1,0.1-0.1c0,0,0.4,0,0.5,0c0,0,0.1,0,0.1,0.1c0,0,0.2,5.7,0.2,6.4c0,0.1,0,0.1-0.1,0.1c-0.1,0-0.4,0-0.5,0
		c0,0-0.1,0-0.1-0.1c0-0.1-0.1-4.7-0.1-4.7c0-0.1-0.1-0.1-0.1,0c0,0.1-0.8,2.9-0.9,3.4c0,0-0.1,0.1-0.1,0.1c-0.1,0-0.3,0-0.3,0
		c0,0-0.1,0-0.1-0.1c-0.1-0.5-0.9-3.3-0.9-3.4c0-0.1-0.1-0.1-0.1,0c0,0.1-0.1,4.2-0.1,4.8c0,0.1,0,0.1-0.1,0.1c-0.1,0-0.5,0-0.5,0
		c0,0-0.1,0-0.1-0.1C31.8,16.6,32,10.9,32.1,10.2C32,10.2,32.1,10.2,32.1,10.2z"/>
	<path d="M36.5,12.7c-0.1,0-0.1,0-0.2,0c-0.1,0-0.1,0-0.1-0.1c0-0.2,0-0.5,0-0.5s0-0.1,0.1-0.1c0.2,0,0.6,0,0.7,0
		c0.1,0,0.2,0.1,0.2,0.2c0,0.1,0,3.8,0,4.4c0,0.1,0,0.1-0.1,0.1c-0.1,0-0.5,0-0.5,0c0,0-0.1,0-0.1-0.1
		C36.6,16.1,36.6,12.8,36.5,12.7C36.6,12.8,36.6,12.7,36.5,12.7z"/>
	<path d="M38.1,12c0,0,0.3,0,0.4,0c0.1,0,0.1,0,0.1,0.1c0,0.1,0,0.2,0,0.4c0,0.1,0,0.1,0.1,0c0-0.1,0.2-0.5,0.9-0.5
		c0.4,0,0.7,0.2,0.9,0.6c0.1,0.3,0.2,0.7,0.2,1.1c0,0,0,2.8,0,2.9c0,0.1,0,0.1-0.1,0.1c-0.2,0-0.5,0-0.5,0c0,0-0.1,0-0.1-0.1
		c0-0.1,0-2.6,0-2.6c0-0.4,0-1.2-0.5-1.2c-0.4,0-0.8,0.5-0.8,1.6c0,0,0,2.2,0,2.3c0,0.1,0,0.1-0.1,0.1c0,0-0.3,0-0.5,0
		c-0.1,0-0.1,0-0.1-0.1C38,16.1,38,12.1,38.1,12C38,12.1,38,12,38.1,12z"/>
	<path d="M41.7,14.7c0,0.5,0.1,0.8,0.2,1c0.2,0.2,0.4,0.4,0.7,0.4c0.4,0,0.6-0.1,0.8-0.2c0,0,0.1,0,0.1,0c0,0,0.1,0.5,0.2,0.6
		c0,0,0,0.1,0,0.1c-0.1,0.1-0.4,0.3-1,0.3c-0.3,0-0.8-0.2-1.1-0.7c-0.1-0.2-0.4-0.6-0.4-1.7c0-1.7,0.7-2.5,1.4-2.5
		c0.8,0,1.3,0.8,1.3,2.6c0,0.1,0,0.1-0.1,0.1C43.7,14.6,41.8,14.6,41.7,14.7C41.7,14.6,41.7,14.6,41.7,14.7z M43.1,13.9
		c0-0.3-0.1-0.7-0.2-0.8c-0.1-0.1-0.2-0.4-0.5-0.4c-0.2,0-0.4,0.1-0.5,0.3c-0.1,0.2-0.2,0.5-0.2,0.9c0,0.1,0,0.1,0.1,0.1
		c0,0,1,0,1.3,0C43.1,13.9,43.1,13.9,43.1,13.9z"/>
	<path d="M52,10.2c0,0,0.4,0,0.6,0c0.1,0,0.1,0,0.1,0.1c0.1,0.7,0.6,5.1,0.6,5.2c0,0.1,0,0.1,0.1,0c0-0.1,0.7-4.5,0.8-5.2
		c0-0.1,0.1-0.1,0.1-0.1c0,0,0.3,0,0.4,0c0.1,0,0.1,0,0.1,0.1c0.1,0.6,0.8,5.1,0.8,5.2c0,0.1,0.1,0.1,0.1,0c0-0.1,0.6-4.5,0.7-5.2
		c0-0.1,0.1-0.1,0.1-0.1c0,0,0.4,0,0.5,0c0.1,0,0.1,0,0.1,0.1c-0.1,0.7-0.9,6.3-0.9,6.4c0,0.1-0.1,0.1-0.1,0.1c-0.2,0-0.6,0-0.6,0
		c-0.1,0-0.1,0-0.1-0.1s-0.7-4.8-0.7-4.9c0,0-0.1,0-0.1,0c0,0.1-0.8,4.8-0.8,4.9s-0.1,0.1-0.1,0.1c-0.2,0-0.6,0-0.6,0
		c-0.1,0-0.1,0-0.1-0.1C52.9,16.6,52.1,11,52,10.2C51.9,10.2,52,10.2,52,10.2z"/>
	<g>
		<ellipse cx="36.8" cy="10.7" rx="0.4" ry="0.4"/>
	</g>
	<path d="M27.5,14.5c-0.1,0-0.2,0-0.4,0c-0.4,0-0.7,0.2-0.7,0.8c0,0.6,0.4,0.8,0.6,0.8c0.2,0,0.4-0.1,0.4-0.1c0.1,0,0.1,0,0.1-0.1
		C27.5,15.6,27.5,14.6,27.5,14.5C27.5,14.5,27.5,14.5,27.5,14.5z M27.5,13.4c0-0.4-0.2-0.7-0.6-0.7c-0.4,0-0.5,0.1-0.6,0.2
		c0,0-0.1,0-0.1,0s-0.1-0.5-0.1-0.6c0-0.1,0-0.1,0.1-0.1c0.1-0.1,0.4-0.2,0.8-0.2c0.8,0,1.2,0.3,1.2,1.7c0,0,0,2.3,0,2.4
		c0,0.3,0.1,0.5,0.1,0.5c0,0,0,0.1,0,0.1c-0.1,0-0.1,0-0.3,0c-0.5,0-0.5,0.1-0.9,0.1c-0.9,0-1.3-0.6-1.3-1.5c0-1.2,0.7-1.6,1.3-1.6
		c0.2,0,0.4,0,0.4,0c0.1,0,0.1,0,0.1-0.1C27.5,13.7,27.5,13.4,27.5,13.4z"/>
	<path d="M20.8,12c0,0,0.4,0,0.5,0c0,0,0.1,0,0.1,0.1c0,0,0,2.9,0,2.9c0,0.8,0.2,1.1,0.7,1.1c0.2,0,0.3,0,0.4-0.1c0,0,0,0,0-0.1
		c0,0,0-3.8,0-3.8c0,0,0-0.1,0.1-0.1c0,0,0.3,0,0.5,0c0,0,0.1,0,0.1,0.1c0,0,0,4,0,4c0,0.3,0.1,0.5,0.1,0.5c0,0,0,0.1,0,0.1h-0.3
		c-0.5,0-0.6,0.1-0.9,0.1c-0.5,0-0.9-0.2-1.1-0.6c-0.1-0.3-0.2-0.5-0.2-1.1C20.7,15,20.7,12.1,20.8,12C20.7,12.1,20.7,12,20.8,12z"
		/>
	<path d="M48,14.5c-0.1,0-0.2,0-0.4,0c-0.4,0-0.7,0.2-0.7,0.8c0,0.6,0.4,0.8,0.6,0.8c0.2,0,0.4-0.1,0.4-0.1c0.1,0,0.1,0,0.1-0.1
		C48.1,15.6,48.1,14.6,48,14.5C48.1,14.5,48.1,14.5,48,14.5z M48.1,13.4c0-0.4-0.2-0.7-0.6-0.7c-0.4,0-0.5,0.1-0.6,0.2
		c0,0-0.1,0-0.1,0s-0.1-0.5-0.1-0.6c0-0.1,0-0.1,0-0.1c0.1-0.1,0.4-0.2,0.8-0.2c0.8,0,1.2,0.3,1.2,1.7c0,0,0,2.3,0,2.4
		c0,0.3,0.1,0.5,0.1,0.5c0,0,0,0.1,0,0.1c-0.1,0-0.1,0-0.3,0c-0.5,0-0.5,0.1-0.9,0.1c-0.9,0-1.3-0.6-1.3-1.5c0-1.2,0.7-1.6,1.3-1.6
		c0.2,0,0.4,0,0.4,0c0.1,0,0.1,0,0.1-0.1C48.1,13.7,48.1,13.4,48.1,13.4z"/>
	<path d="M58.8,14.5c-0.1,0-0.2,0-0.4,0c-0.4,0-0.7,0.2-0.7,0.8c0,0.6,0.4,0.8,0.6,0.8s0.4-0.1,0.4-0.1c0.1,0,0.1,0,0.1-0.1
		C58.9,15.6,58.9,14.6,58.8,14.5C58.9,14.5,58.9,14.5,58.8,14.5z M58.9,13.4c0-0.4-0.2-0.7-0.6-0.7c-0.4,0-0.5,0.1-0.6,0.2
		c0,0-0.1,0-0.1,0s-0.1-0.5-0.1-0.6c0-0.1,0-0.1,0-0.1c0.1-0.1,0.4-0.2,0.8-0.2c0.8,0,1.2,0.3,1.2,1.7c0,0,0,2.3,0,2.4
		c0,0.3,0.1,0.5,0.1,0.5c0,0,0,0.1,0,0.1c-0.1,0-0.1,0-0.3,0c-0.5,0-0.5,0.1-0.9,0.1c-0.9,0-1.3-0.6-1.3-1.5c0-1.2,0.7-1.6,1.3-1.6
		c0.2,0,0.4,0,0.4,0c0.1,0,0.1,0,0.1-0.1C58.9,13.7,58.9,13.4,58.9,13.4z"/>
	<path d="M60.3,12.7c-0.1,0-0.3,0-0.4,0c0,0-0.1,0-0.1-0.1c0-0.1,0-0.2,0-0.2c0,0,0-0.1,0-0.1c0.2-0.1,0.7-0.6,0.7-1.4
		c0,0,0-0.1,0.1-0.1c0.1,0,0.2,0,0.3,0c0.1,0,0.1,0,0.1,0.1c0,0,0,0.9,0,1.1c0,0,0,0.1,0,0.1c0.1,0,0.5,0,0.5,0c0,0,0.1,0,0.1,0.1
		c0,0,0,0.4,0,0.6c0,0,0,0.1-0.1,0.1c0,0-0.4,0-0.5,0c0,0-0.1,0-0.1,0.1c0,0,0,2.5,0,2.5c0,0.6,0.1,0.7,0.3,0.7c0.1,0,0.2,0,0.3-0.1
		c0,0,0.1,0,0.1,0s0,0.4,0.1,0.6c0,0.1,0,0.1-0.1,0.1c-0.1,0-0.3,0.1-0.4,0.1c-0.3,0-0.5-0.1-0.6-0.3c-0.2-0.2-0.2-0.6-0.2-1.1
		C60.3,15.4,60.3,12.8,60.3,12.7C60.4,12.8,60.3,12.7,60.3,12.7z"/>
	<path d="M49.3,10c0,0,0.4,0,0.5,0c0,0,0.1,0,0.1,0s0,5.2,0,5.2c0,0.5,0.1,0.7,0.4,0.7c0.1,0,0.1,0,0.2,0c0,0,0.1,0,0.1,0
		c0,0,0,0.4,0,0.6c0,0,0,0.1-0.1,0.1c-0.1,0-0.2,0.1-0.3,0.1c-0.4,0-0.8-0.3-0.8-1.3C49.3,15.5,49.3,10.1,49.3,10
		C49.2,10.1,49.3,10,49.3,10z"/>
	<path d="M44.5,12c0,0,0.4,0,0.5,0c0,0,0.1,0,0.1,0.1c0,0.1,0,0.4,0,0.5c0,0.1,0,0.1,0.1,0c0.1-0.2,0.2-0.3,0.3-0.4
		c0.1-0.2,0.3-0.2,0.5-0.2c0,0,0.1,0,0.1,0c0,0,0.1,0,0.1,0.1c0,0,0,0.7,0,0.7c0,0,0,0.1-0.1,0.1c0,0-0.1,0-0.1,0
		c-0.3,0-0.6,0.3-0.7,0.8C45,13.8,45,14.1,45,14.4c0,0,0,2.2,0,2.2c0,0,0,0.1-0.1,0.1c-0.1,0-0.4,0-0.5,0c0,0-0.1,0-0.1-0.1
		C44.4,16.1,44.4,12.1,44.5,12C44.4,12.1,44.4,12,44.5,12z"/>
	<path d="M65.4,12c0,0,0.4,0,0.5,0c0,0,0.1,0,0.1,0.1c0,0.1,0,0.4,0,0.5c0,0.1,0,0.1,0.1,0c0.1-0.2,0.2-0.3,0.3-0.4
		c0.1-0.2,0.3-0.2,0.5-0.2c0,0,0.1,0,0.1,0s0.1,0,0.1,0.1c0,0,0,0.7,0,0.7c0,0,0,0.1-0.1,0.1c0,0-0.1,0-0.1,0
		c-0.3,0-0.6,0.3-0.7,0.8C66,13.8,66,14.1,66,14.4c0,0,0,2.2,0,2.2c0,0,0,0.1-0.1,0.1c-0.1,0-0.4,0-0.5,0s-0.1,0-0.1-0.1
		C65.4,16.1,65.4,12.1,65.4,12C65.4,12.1,65.4,12,65.4,12z"/>
	<path d="M62.7,14.7c0,0.5,0.1,0.8,0.2,1c0.2,0.2,0.4,0.4,0.7,0.4c0.4,0,0.6-0.1,0.8-0.2c0,0,0.1,0,0.1,0c0,0,0.1,0.5,0.2,0.6
		c0,0,0,0.1,0,0.1c-0.1,0.1-0.4,0.3-1,0.3c-0.3,0-0.8-0.2-1.1-0.7c-0.1-0.2-0.4-0.6-0.4-1.7c0-1.7,0.7-2.5,1.4-2.5
		c0.8,0,1.3,0.8,1.3,2.6c0,0.1,0,0.1-0.1,0.1C64.6,14.6,62.8,14.6,62.7,14.7C62.7,14.6,62.7,14.6,62.7,14.7z M64.1,13.9
		c0-0.3-0.1-0.7-0.2-0.8c-0.1-0.1-0.2-0.4-0.5-0.4c-0.2,0-0.4,0.1-0.5,0.3c-0.1,0.2-0.2,0.5-0.2,0.9c0,0.1,0,0.1,0.1,0.1
		c0,0,1,0,1.3,0C64.1,13.9,64.1,13.9,64.1,13.9z"/>
</g>
<g>
	<path d="M20.7,20.7l-3.4,1.1c-1.3-0.9-3-1.3-4.6-0.8c-2.1,0.6-3.9,2.7-4.1,4.9c-0.2,2.4,1.1,4.6,3.2,5.7c1.6,0.8,3.7,0.6,5.3-0.2
		c1.5-1,2.6-2.6,2.7-4.4c-2.5-0.9-5.4-0.1-7.3,1.9l-0.9,1.3L10.3,28c0.1-0.3,0.4-0.7,0.6-0.9c2.1-2.8,5.3-3.7,8.6-3.3
		c1.2,0.2,2.2,0.7,3.3,1.3c2.2-1.3,5.6-1.8,7.8-0.2c2.7,1.7,1,5.4,1.7,8c0.2,0.4,0.6,0.4,0.9,0.3c0.1,0,0.3-0.2,0.3-0.3v-9h3.5
		l0,1.1c1-1.1,2.4-1.2,3.9-1.2l3.7,0.1l0.1-1.9h3.9l0.1,1.8c0.7,0,1.4,0,2.1,0.1c0.9-2.9,3.9-5.4,6.8-5.8c2.9-0.5,5.6,0.4,7.6,2.3
		c0,3-1.5,5.7-4.1,7.4c-1.5,1-3.5,1.4-5.4,1.3l-1.2-2.3c2.7,0.4,5.1-1,6.6-3.2c0.2-0.7,1.4-1.7,0.2-2.1c-1.5-0.6-3.6-0.6-4.9,0.3
		c-2.1,1.3-3.3,3.6-2.8,6.1c0.3,1.7,1.7,3.4,3.3,4c2.2,0.9,4.9,0.4,6.5-1.4c1-1,1.4-2.2,1.4-3.7l2.9-2.4H71V25
		c1.1-1.2,2.7-1.4,4.2-1c1.1,0.3,1.9,1.6,2.1,2.6l0.1,8.7H74l-0.1-7.9c-0.2-0.4-0.5-1-1-1.1c-0.5-0.1-1.1-0.1-1.4,0.3
		c-0.2,0.2-0.4,0.4-0.5,0.7v8.1h-3.4c0-2.1,0.1-4.2-0.1-6.2c-0.6,1.5-1.5,3.1-2.9,4.2c-2.2,1.9-5.5,2.5-8.3,1.6
		c-2.8-1.1-5.4-3.8-5.8-6.8c-0.1-0.8-0.1-1.6-0.1-2.4l-1.7,0l0,6.6c0.1,0.5,0.5,1,0.9,1.1c0.6,0.2,1.2,0,1.6-0.4l0.6-0.7l1,1.2
		c-0.2,0.2-0.3,0.4-0.6,0.6c-1.3,1.2-3.1,1.6-5,1.2c-0.7-0.1-1.3-0.4-1.9-0.9c-0.4-0.4-0.7-0.9-0.7-1.5l-0.1-7.2l-1.8,0
		c0.2,0.2,0.4,0.6,0.4,1.3l0,8.4h-3.4l-0.1-8c-0.1-0.4-0.5-0.9-0.9-1.1c-0.5-0.1-1.1-0.1-1.5,0.2l-0.4,0.6l0,8.2h-3.5
		c0-0.2,0.1-0.5-0.1-0.7c-1,0.5-2.4,0.9-3.5,0.4c-0.2-0.2-0.5-0.3-0.7-0.6v-3.5c-0.9-0.7-2.4-0.7-3.3-0.2c-0.5,0.4-0.8,1-0.5,1.7
		c0.2,0.4,0.6,0.9,1.1,0.9c0.8,0.2,1.8-0.1,2.4-0.5l0,2c-0.3,0.2-0.6,0.3-1.1,0.4c-1.6,0.2-3.3,0.2-4.4-0.9c-0.9-0.9-1-2.1-0.8-3.3
		c0.3-0.8,0.8-1.6,1.6-2c1.5-0.7,3.7-0.9,5.1,0.1c0.2-0.8,0-1.6-0.5-2.2c-1-1.1-2.8-0.9-4.1-0.4c-0.7,0.3-1.1,0.7-1.4,1.2
		c-0.2,1.1-0.5,2.5-1.5,3.9c-2,2.9-5.2,4.1-8.7,3.7c-2.9-0.4-5.8-2.8-6.7-5.6c-1.1-3-0.5-6.7,1.7-9c2-2.1,4.7-3,7.7-2.7
		C17.5,18.3,19.3,19.1,20.7,20.7z"/>
</g>
</svg>
