<svg id="Livello_48" data-name="Livello 48" xmlns="http://www.w3.org/2000/svg" viewBox="0 0 300 134"><defs><style>.cls-1{fill:#4f4f4f;}</style></defs><title>linglong_grey</title><polygon class="cls-1" points="27.02 121.61 32.75 103.39 26.75 103.39 19.75 125.55 34.91 125.55 36.25 121.61 27.02 121.61"/><polygon class="cls-1" points="44.95 103.39 37.96 125.55 44.05 125.55 51.05 103.39 44.95 103.39"/><polygon class="cls-1" points="224.59 103.12 216.61 125.64 222.71 125.64 230.6 103.12 224.59 103.12"/><polygon class="cls-1" points="68.9 103.39 64.5 116.22 61.09 103.31 55.09 103.31 48 125.55 53.65 125.55 58.05 112.91 61.09 125.55 67.46 125.55 74.55 103.39 68.9 103.39"/><path class="cls-1" d="M74.28,115.05a11.22,11.22,0,0,0-.63,3.86,6.69,6.69,0,0,0,.9,3.41,6,6,0,0,0,3,2.78,13.87,13.87,0,0,0,5.38.9A24.48,24.48,0,0,0,93,123.84l3.32-10.39h-9.4l-1.17,3.68h3.41l-1.43,4.57-0.18.09H87.46a10.08,10.08,0,0,1-2.87.36,4.94,4.94,0,0,1-3.14-.9,3.32,3.32,0,0,1-1.26-2.6h0a14,14,0,0,1,.72-3.77,13.45,13.45,0,0,1,3.41-5.74,7.08,7.08,0,0,1,5.2-1.88h0c2,0,3.68.18,4.93,1.35l4.13-3a12.79,12.79,0,0,0-7.8-2.42,15.87,15.87,0,0,0-6.46,1.17A16.35,16.35,0,0,0,74.28,115.05Z"/><polygon class="cls-1" points="159.3 103.31 154.91 116.22 151.41 103.31 145.4 103.31 138.41 125.55 143.97 125.55 148.36 112.81 151.41 125.55 157.87 125.55 164.86 103.31 159.3 103.31"/><path class="cls-1" d="M164.32,115.05a11.07,11.07,0,0,0-.63,3.77,6.69,6.69,0,0,0,.9,3.41,6,6,0,0,0,3,2.78,13.87,13.87,0,0,0,5.38.9,24.48,24.48,0,0,0,10.13-2.15l3.32-10.4h-9.51l-1.17,3.77h3.41l-1.43,4.57-0.18.09h-0.09a10.08,10.08,0,0,1-2.87.36,4.94,4.94,0,0,1-3.14-.9,3.32,3.32,0,0,1-1.26-2.6h0a14,14,0,0,1,.72-3.77,13.74,13.74,0,0,1,3.41-5.83,7.9,7.9,0,0,1,5.2-1.88h0c2,0,3.68.18,4.93,1.35l4.13-3a12.79,12.79,0,0,0-7.8-2.42,18.91,18.91,0,0,0-7.09,1.08C168.81,106,165.85,110.21,164.32,115.05Z"/><polygon class="cls-1" points="103.7 121.61 109.53 103.31 103.52 103.31 96.52 125.55 111.77 125.55 113.02 121.61 103.7 121.61"/><path class="cls-1" d="M138.23,105c-1.26-1.17-3.41-2-6.82-2-7,0-13.45,4.13-16,12.2a11.58,11.58,0,0,0-.63,3.86A6,6,0,0,0,117,124a11.66,11.66,0,0,0,6.64,1.88,15.17,15.17,0,0,0,10.67-3.77,20.56,20.56,0,0,0,5.2-8.7,11.07,11.07,0,0,0,.63-3.77A6.28,6.28,0,0,0,138.23,105Zm-4.93,4.66a16,16,0,0,1-1,4.66,15.28,15.28,0,0,1-3,6.1,5,5,0,0,1-3.68,1.61h-0.45a3.84,3.84,0,0,1-2.6-.72,3.16,3.16,0,0,1-1.08-2.6h0a16.53,16.53,0,0,1,.9-4.66,14.23,14.23,0,0,1,2.87-5.38,5.84,5.84,0,0,1,4-2.15h0.45a4.48,4.48,0,0,1,2.6.63,3.12,3.12,0,0,1,1,2.51h0Z"/><path class="cls-1" d="M200,125.63L206.21,107h-6.64l1.26-3.77H219.3L218,107h-6.37l-6.19,18.65H200v0Z"/><path class="cls-1" d="M229.08,125.63l7.53-22.42h9.87a14.56,14.56,0,0,1,5.2.63,3.16,3.16,0,0,1,2,2.15,5.19,5.19,0,0,1-.18,3.5,8.07,8.07,0,0,1-2.87,4.13,10.44,10.44,0,0,1-5.29,2.06,9.37,9.37,0,0,1,1.88,1.88,13.08,13.08,0,0,1,1.43,3.68l1.35,4.39h-5.65l-1.79-4.84a15.47,15.47,0,0,0-1.43-3.32,2.1,2.1,0,0,0-1.08-.9,9.58,9.58,0,0,0-2.24-.27h-0.63L234,125.72l-4.93-.09h0Zm9.33-13h3a17.39,17.39,0,0,0,4.3-.27,4.7,4.7,0,0,0,1.61-.9,5.52,5.52,0,0,0,1.08-1.7,2.3,2.3,0,0,0,0-1.88A2.1,2.1,0,0,0,247,107a26.54,26.54,0,0,0-3.41-.09h-3.32Z"/><path class="cls-1" d="M255,125.63l7.53-22.42h17.22L278.49,107H266.57L265,111.91h11.12l-1.26,3.77H263.7l-2.06,6.1H274.1l-1.26,3.77H255.09v0.09H255Z"/><path class="cls-1" d="M77.06,71.37c1.61,9.06,14.89,15,34,16.86L112.49,84c-12.11-2.69-19.55-8.07-20.72-14.89-2.33-12.91,19.73-28.79,54.62-34.8l1-2.87C106.21,37.74,74.37,55.86,77.06,71.37Z"/><polygon class="cls-1" points="131.14 81.69 144.23 41.06 129.62 41.06 113.38 91.83 163.16 91.83 166.3 81.69 131.14 81.69"/><polygon class="cls-1" points="153.47 68.23 167.19 25.19 152.66 25.19 135.62 78.46 186.12 78.46 189.44 68.23 153.47 68.23"/><path class="cls-1" d="M222.44,46.71c-1.08-6.37-7.8-11.21-18.3-14.17-9.24-2.6-21.17-3.86-34.8-3.32l-1.08,3.41c15.16,0.09,26.46,3,33.45,7.8,3.68,2.51,5.92,5.65,6.46,9.15,1.17,7.26-5.2,15.34-16.5,21.7l-1.61,5C211.05,68.06,224.05,56.84,222.44,46.71Z"/></svg>