<?xml version="1.0" encoding="utf-8"?>
<!-- Generator: Adobe Illustrator 21.1.0, SVG Export Plug-In . SVG Version: 6.00 Build 0)  -->
<svg version="1.1" id="Layer_1" xmlns="http://www.w3.org/2000/svg" xmlns:xlink="http://www.w3.org/1999/xlink" x="0px" y="0px"
	 viewBox="0 0 91.8 38.6" style="enable-background:new 0 0 91.8 38.6;" xml:space="preserve">
<style type="text/css">
	.st0{fill:#4F4F4F;}
</style>
<g>
	<path class="st0" d="M91.7,12.3l-1.2-8.2l-2.9,0.4c0-0.3-0.3-1.9-0.3-1.9c-0.1-0.5-0.3-1-0.8-1.4c-0.5-0.3-1-0.4-1.6-0.4l-6.4,0.9
		l-0.1-0.1c-0.7-0.5-1.4-0.9-2.2-1.2c-1.8-0.6-4.1-0.7-6.3-0.2c-1.9,0.4-3.7,1.1-5.5,1.9l-0.1,0.1l-0.1-0.1
		c-0.6-0.2-1.2-0.4-1.8-0.4C61.1,1.7,60,1.7,58.9,2c-1.1,0.2-2.2,0.6-3.3,1.1l-0.4,0.2c0-0.1-0.1-0.4-0.1-0.4l-0.2,0l-12,1.8
		c0,0,0.8,5.7,0.9,6l-0.4,0c0,0-1.1,0.1-1.5,0.2c-1,0.2-1.9,0.6-2.8,1.1l-0.5,0.3c0-0.2,0-0.3,0-0.3c-0.4-2.6-2-4.4-4.7-5.3
		c-1.8-0.6-4.1-0.7-6.4-0.2c-1.9,0.4-3.7,1.1-5.5,1.9l-0.1,0.1l-0.1-0.1C21.2,8.2,20.6,8,20,8c-1.2-0.1-2.3-0.1-3.4,0.2
		c-1.1,0.2-2.2,0.6-3.3,1.1l-0.4,0.2c0-0.1,0-0.4,0-0.4L0.6,10.8l1.2,8.1h0.2c0.6,0,1.1,0.1,1.3,0.3c0.4,0.3,0.7,0.8,0.7,1.4
		l1.3,8.9v0.1c0,0.4-0.1,0.9-0.4,1.2c-0.2,0.2-0.5,0.4-0.8,0.5l-0.1,0.1l1,6.5l38.3-5.6l-0.8-5.4l0.4,0c1.1,0.1,2.1-0.1,3.2-0.4
		l0.4-0.2c0.1,0.4,0.8,5.3,0.8,5.3l0.2,0l37.5-5.5c0,0-1.2-8.5-1.3-8.9l4.1-0.6c1.4-0.2,2.6-0.9,3.4-1.9c0.4-0.6,0.7-1.3,0.7-2
		C91.8,12.6,91.8,12.5,91.7,12.3z M87.6,16.4l-4.3,0.6c0,0,1.2,7.9,1.3,8.9l-37.3,5.4c-0.1-0.9-0.8-5.4-0.8-5.4l-0.6,0.3
		c-1,0.3-2,0.5-3.1,0.4l-0.7-0.1c0,0,0.7,4.5,0.8,5.4L5,37.6L4,31.3c0.3-0.1,0.6-0.3,0.9-0.5c0.4-0.3,0.5-0.8,0.5-1.3
		c0,0,0-0.1,0-0.1l-0.1-0.2c0,0.1,0.1,0.1,0.1,0.2l0,0l-1.3-8.9c0-0.6-0.3-1.1-0.8-1.5c-0.4-0.3-1-0.4-1.5-0.4
		c-0.1-0.8-1-6.8-1.1-7.7l11.9-1.7c0,0.2,0.1,0.5,0.1,0.5l0.6-0.3c1-0.5,2.1-0.9,3.2-1.1C17.7,8.1,18.8,8,20,8.1
		c0.6,0.1,1.2,0.2,1.8,0.4l0.2,0.1l0.2-0.1c1.7-0.8,3.6-1.4,5.4-1.9c2.3-0.5,4.5-0.4,6.3,0.2c2.6,0.9,4.2,2.7,4.5,5.2l0.1,0.6
		l0.7-0.5c0.8-0.5,1.7-0.9,2.7-1.1c0.5-0.1,1.5-0.2,1.5-0.2l0.6,0c0,0-0.7-5.1-0.9-6L55,3.1L55,3.6l0.7-0.3c1-0.5,2.1-0.9,3.2-1.1
		C60,1.9,61.2,1.9,62.3,2c0.6,0.1,1.2,0.2,1.8,0.4l0.2,0.1l0.2-0.1c1.7-0.8,3.6-1.5,5.4-1.9c2.3-0.5,4.5-0.4,6.3,0.2
		c0.8,0.3,1.5,0.6,2.2,1.1L78.5,2L85,1c0.5-0.1,1,0,1.4,0.3c0.4,0.3,0.7,0.8,0.7,1.3l0.3,2.1l2.9-0.4c0.1,0.9,1.2,8.1,1.2,8.1
		C91.8,14,90.4,16,87.6,16.4z"/>
	<g>
		<g>
			<polygon class="st0" points="80.9,3.5 80.7,4 80.7,4 80.1,6.2 81.9,5.9 81.9,5.9 82.1,5.9 82.8,3.2 			"/>
			<path class="st0" d="M90.6,11.6c-0.1-0.7-0.4-1.1-1-1.5c-0.5-0.4-1.2-0.6-1.9-0.7c-0.6-0.1-1.3-0.2-1.9-0.3
				c-0.4-0.1-0.9-0.2-1-0.7c0-0.1,0-0.2,0-0.3c0,0,0,0,0,0c0.1-0.4,0.5-0.8,1.2-0.8C87.2,7.2,88,8,88.4,8.6l0.7-0.1l0,0l0.5-0.1
				l-0.4-2.9l0,0l0,0l-1.6,0.2L87.4,6c-0.3-0.1-0.7-0.1-1-0.1c-0.3,0-0.7,0-1,0.1c-1.8,0.3-3.2,1.5-2.9,3.1c0.2,1.3,1.3,1.9,2.6,2.2
				c0.7,0.1,1.5,0.2,2,0.3c0.4,0.1,0.9,0.2,1,0.7c0,0.1,0,0.1,0,0.2c0,0,0,0,0,0c0,0.1,0,0.1,0,0.2c0,0,0,0,0,0c0,0,0,0.1-0.1,0.1
				c0,0,0,0,0,0c0,0-0.1,0.1-0.1,0.1c0,0,0,0,0,0c0,0-0.1,0.1-0.1,0.1c0,0,0,0,0,0c0,0,0,0,0,0c-0.2,0.2-0.5,0.3-0.8,0.3
				c-1.2,0.2-1.9-0.7-2.4-1.4l-1.3,0.2l0,0l0,0l0.4,3l1.8-0.3l0.1-0.3c0.9,0.2,1.9,0.2,2.9-0.1C89.8,14.1,90.8,12.9,90.6,11.6z"/>
			<path class="st0" d="M85.5,4.1c-0.7,0.1-1.4-0.3-1.5-1c0,0,0-0.1,0-0.1c-0.1-0.7,0.5-1.4,1.2-1.5c0.7-0.1,1.3,0.4,1.5,1.1
				C86.8,3.3,86.3,4,85.5,4.1C85.6,4.1,85.6,4.1,85.5,4.1z M85.2,1.8c-0.5,0.1-0.9,0.6-0.8,1.1c0,0,0,0,0,0.1c0,0.5,0.5,0.9,1,0.9
				c0,0,0,0,0.1,0l0,0c0.5-0.1,0.9-0.6,0.8-1.1c0,0,0,0,0,0C86.2,2.1,85.7,1.8,85.2,1.8C85.2,1.8,85.2,1.8,85.2,1.8L85.2,1.8z
				 M85.2,3.6l-0.3,0l-0.2-1.4l0.5-0.1c0.4-0.1,0.6,0,0.6,0.3c0,0.2-0.1,0.4-0.2,0.4c0,0,0,0-0.1,0L86,3.4l-0.4,0.1l-0.4-0.5l-0.1,0
				L85.2,3.6z M85.4,2.7c0.1,0,0.2-0.1,0.2-0.2c0-0.2-0.2-0.1-0.3-0.1l-0.2,0l0.1,0.3L85.4,2.7z"/>
			<path class="st0" d="M82.6,20.4c-0.4,0-0.7-0.2-1-0.4c-0.4-0.3-0.7-0.7-0.8-1.2L78.9,6.3c-0.3-1.9-1.4-3.2-3.3-3.8
				c-1.5-0.5-3.3-0.5-5.3-0.1c-2.1,0.5-4.1,1.2-6,2.2c-0.7-0.4-1.4-0.6-2.2-0.7c-0.9-0.1-1.9,0-2.8,0.1c-1.6,0.3-3.2,1-4.6,1.9
				l-1.1,0.8l-0.2-1.5l-8.2,1.2l0.6,4.3c1,0,2,0.7,2.2,1.5l0.7,5l2.3-0.3l1.1,7.4l-2.8,0.4c0,0.1-0.1,0.1-0.2,0.2
				c-0.2,0.3-0.5,0.5-0.9,0.6l0.6,3.8L59,27.7L58.4,24c-0.4,0-0.7-0.2-1-0.4c-0.4-0.3-0.7-0.7-0.8-1.2L55,11.1c-0.1-0.4,0-0.7,0.3-1
				c0.4-0.6,1.1-1.1,2.2-1.3c1.5-0.2,2.5,0.6,2.6,1.3l2.5,17l8.5-1.2l-0.6-3.8c-0.4,0-0.7-0.2-1-0.4c-0.4-0.2-0.8-0.7-0.9-1.2
				L67,9.4c-0.1-0.4,0-0.7,0.3-1c0.4-0.6,1.1-1.1,2.2-1.3c1.5-0.2,2.5,0.6,2.6,1.4l2.5,17l8.5-1.2L82.6,20.4z"/>
			<path class="st0" d="M42.8,14.4c0.8-0.1,1.4,0.3,1.5,0.9c0.1,0.6-0.5,1.2-1.3,1.7c-0.5-0.3-1.2-0.9-1.3-1.3
				C41.6,15.1,42.1,14.5,42.8,14.4z M43.5,22.7c-1,0.1-1.9-0.2-2.1-1.1c-0.1-0.5,0.5-1.1,1.3-1.8l2.6,2
				C44.8,22.2,44.2,22.5,43.5,22.7z M50.9,21.6l-1.6,0.2l-0.6-0.5c0.2-0.4,0.5-0.8,0.6-1.2c0.1-0.1,0.1-0.3,0.2-0.4l1.1-0.2
				l-0.3-1.8l-2.8,0.4c-0.2,0.6-0.4,1.2-0.7,1.7l-2.1-1.6c1.1-0.9,2.1-1.9,1.9-3.3c-0.2-1.5-1.9-2.6-4.1-2.3c-1.6,0.2-2.6,1.1-3,2.1
				c-0.2,0.4-0.2,0.8-0.1,1.2c0.2,1,0.7,1.5,1.5,2.2c-1.3,0.9-2.3,2-2.1,3.5c0.2,2,2.4,3.2,5,2.8c1.3-0.2,2.5-0.7,3.5-1.5l1,0.8
				l3-0.4L50.9,21.6z"/>
			<path class="st0" d="M39.3,26.3c-0.4-0.3-0.7-0.7-0.8-1.2l-1.9-12.6c-0.3-1.9-1.4-3.2-3.3-3.9C31.8,8.1,29.9,8,28,8.5
				c-2.1,0.5-4.1,1.2-6,2.2c-0.7-0.4-1.4-0.6-2.2-0.7c-0.9-0.1-1.9,0-2.8,0.1c-1.6,0.3-3.2,1-4.6,1.9l-1.1,0.8l-0.2-1.5l-8.2,1.2
				l0.6,4.3c1,0,2,0.7,2.2,1.5l1.6,11.2c0.1,0.5-0.1,1-0.5,1.4c-0.2,0.3-0.5,0.5-0.9,0.6l0.6,3.8l10.1-1.5l-0.6-3.8
				c-0.4,0-0.7-0.2-1-0.4c-0.4-0.3-0.7-0.7-0.8-1.2l-1.6-11.3c-0.1-0.4,0-0.7,0.3-1c0.4-0.6,1.1-1.1,2.2-1.3
				c1.5-0.2,2.5,0.6,2.6,1.3l2.5,17l8.5-1.2l-0.6-3.8c-0.4,0-0.7-0.2-1-0.4c-0.4-0.3-0.7-0.7-0.8-1.2l-1.6-11.2
				c-0.1-0.4,0-0.7,0.3-1c0.4-0.6,1.1-1.1,2.2-1.3c1.5-0.2,2.5,0.6,2.6,1.3l2.5,17l8.5-1.2l-0.6-3.8C39.9,26.6,39.6,26.5,39.3,26.3z
				"/>
		</g>
		<g>
			<path class="st0" d="M4.6,30.5L4.6,30.5c0,0.1,0,0.2,0,0.3c0,0,0.1-0.1,0.1-0.1c0.3-0.3,0.5-0.7,0.4-1.2v-0.1l-1.3-8.9
				c0-0.5-0.3-1-0.7-1.4C3,19,2.5,18.9,1.9,18.9H1.7l-1-6.9L0,12c0.1,0.9,1,6.9,1.1,7.7c0.5,0,1.1,0.1,1.5,0.4
				c0.4,0.4,0.7,0.9,0.8,1.5L4.6,30.5z"/>
			<path class="st0" d="M43.4,10.7l0.4,0c0-0.3-0.5-3.2-0.7-4.9l-0.7,0.1c0.1,0.6,0.5,3.3,0.7,4.8C43.2,10.7,43.4,10.7,43.4,10.7z"
				/>
			<path class="st0" d="M4.8,37.7L4,32.1c-0.2,0.2-0.4,0.3-0.7,0.4c0.1,0.7,0.8,5.4,0.9,6.2l38-5.5l-0.1-0.8L4.8,37.7z"/>
			<path class="st0" d="M87.7,16.6l-4.1,0.6c0,0.1,0,0.3,0.1,0.8l3.2-0.5c1.6-0.2,2.8-1,3.4-2C89.6,16.1,88.7,16.5,87.7,16.6z"/>
			<path class="st0" d="M47.3,31.6l-0.2,0c0,0-0.7-4.9-0.8-5.3l-0.4,0.2c-1,0.3-2.1,0.5-3.2,0.4l-0.4,0l0.1,0.9
				c0.9,0,1.8-0.1,2.6-0.4l0.6-0.3c0,0,0.7,4.5,0.8,5.4L83.9,27c0-0.1-0.1-0.4-0.1-0.8L47.3,31.6z"/>
		</g>
	</g>
</g>
</svg>
