<?xml version="1.0" encoding="utf-8"?>
<!-- Generator: Adobe Illustrator 19.2.1, SVG Export Plug-In . SVG Version: 6.00 Build 0)  -->
<svg version="1.1" id="Ebene_3" xmlns="http://www.w3.org/2000/svg" xmlns:xlink="http://www.w3.org/1999/xlink" x="0px" y="0px"
	 viewBox="0 0 140 35" style="enable-background:new 0 0 140 35;" xml:space="preserve">
<style type="text/css">
	.st0{fill:#4F4F4F;}
</style>
<g>
	<path class="st0" d="M65.3,14.5c-1.2,0-2,1-1.9,3.1l3.6-0.5C67,15.3,66.4,14.5,65.3,14.5z"/>
	<path class="st0" d="M79.4,20c0,1.2,0.7,1.7,1.9,1.7c0.4,0,0.8-0.1,1.1-0.2v-3.7C80.6,18,79.4,18.4,79.4,20z"/>
	<path class="st0" d="M45.3,14.6c-1.3,0-1.6,1.6-1.6,3.4s0.3,3.3,1.6,3.3c1.3,0,1.6-1.5,1.6-3.3C46.9,16.2,46.7,14.6,45.3,14.6z"/>
	<path class="st0" d="M55.2,14.5c-0.5,0-0.8,0-1.1,0.2v6.6c0.2,0.1,0.5,0.2,0.9,0.2c1.5,0,2.1-1.3,2.2-3.6
		C57.2,15.9,56.8,14.5,55.2,14.5z"/>
	<path class="st0" d="M105.7,14.6c-1.3,0-1.6,1.6-1.6,3.4s0.3,3.3,1.6,3.3c1.3,0,1.6-1.5,1.6-3.3C107.3,16.2,107.1,14.6,105.7,14.6z
		"/>
	<path class="st0" d="M119.8,8.6l-0.1-0.8l-0.8-0.2C106.8,4.2,87.2,2,70,2S33.1,4.2,21.1,7.5l-0.8,0.2l-0.1,0.8
		c-0.7,7,0.5,13.4,3.4,18l0.3,0.4l0.1,0.2l0.5,0.2C24.7,27.4,44.8,33,70,33s45.3-5.6,45.5-5.7l0.5-0.1l0.4-0.6
		C119.3,22,120.5,15.6,119.8,8.6z M39.4,23h-2.9v-7c0-0.7-0.3-1.4-1.5-1.4c-0.6,0-0.9,0.1-1.3,0.2v8.3h-3v-9.6
		c1-0.5,2.5-0.8,4.3-0.8c3.3,0,4.4,1.4,4.4,3.2V23z M45.3,23.3c-3,0-4.6-2.2-4.6-5.3c0-3,1.6-5.2,4.5-5.2c3,0,4.6,2.2,4.6,5.2
		S48.3,23.3,45.3,23.3z M54.8,23.3c-1.7,0-3-0.4-3.7-0.8V9.7c1.2-0.3,2.1-0.5,3-0.4v3.9c0.5-0.2,1-0.4,1.9-0.4c2.4,0,4.1,1.9,4.1,5
		C60,21.3,58.1,23.3,54.8,23.3z M66.1,21.2c1.2,0,2.1-0.3,2.7-0.5l0.7,1.8c-0.8,0.4-2,0.7-3.7,0.7c-3.2,0-5-2-5-5.3
		c0-3.2,1.7-5.2,4.7-5.2s4.5,2,4.5,5.4L63.6,19C63.8,20.5,64.6,21.2,66.1,21.2z M76,14.9c-0.7-0.3-1.5-0.3-2-0.1v8.3h-3v-9.6
		c1.1-0.5,2.8-0.8,5.5-0.7L76,14.9z M85.3,22.3c-0.9,0.7-2.3,0.9-4,0.9c-3,0-4.5-1.1-4.5-3.2c0-2.6,2.7-3.4,5.8-3.7v-0.5
		c0-1.1-0.7-1.4-1.8-1.4c-1,0-2,0.3-2.7,0.6l-0.7-1.7c0.7-0.3,2.1-0.8,3.9-0.8c2.3,0,4.1,1,4.1,3.7v6.1H85.3z M89.2,23.2
		c-1.3,0-2.4-0.3-3-0.7l0.8-1.9c0.4,0.3,1.1,0.6,1.8,0.6c0.8,0,1.3-0.5,1.3-1.1c0-0.7-0.4-1.1-1.3-1.4c-1.9-0.7-2.3-1.8-2.3-2.8
		c0-1.7,1.4-3.1,3.5-3.1c1.3,0,2.2,0.2,3,0.7l-0.7,1.7c-0.3-0.2-0.9-0.5-1.6-0.5c-0.8,0-1.2,0.5-1.2,1.1c0,0.7,0.5,1.1,1.3,1.4
		c2,0.8,2.5,1.8,2.5,3C93.1,21.8,91.6,23.2,89.2,23.2z M98.7,21.1c0.6,0,0.9-0.1,1.2-0.4l0.6,1.8c-0.3,0.5-1.1,0.8-2.4,0.8
		c-2.4,0-4.3-1.9-4.3-5.3s1.9-5.2,4.2-5.2c1.3,0,2.1,0.4,2.5,0.7l-0.6,1.6c-0.3-0.2-0.6-0.4-1.2-0.4c-1.3,0-1.9,1.2-1.9,3.2
		C96.8,19.9,97.5,21.1,98.7,21.1z M105.7,23.3c-3,0-4.6-2.2-4.6-5.3c0-3,1.6-5.2,4.5-5.2c3,0,4.6,2.2,4.6,5.2
		C110.3,21,108.7,23.3,105.7,23.3z"/>
</g>
</svg>
