<?xml version="1.0" encoding="utf-8"?>
<!-- Generator: Adobe Illustrator 19.1.0, SVG Export Plug-In . SVG Version: 6.00 Build 0)  -->
<svg version="1.1" id="Ebene_1" xmlns="http://www.w3.org/2000/svg" xmlns:xlink="http://www.w3.org/1999/xlink" x="0px" y="0px"
	 viewBox="26 15 140 35" style="enable-background:new 26 15 140 35;" xml:space="preserve">
<style type="text/css">
	.st0{fill:none;}
	.st1{fill:#4F4F4F;}
</style>
<g>
	<rect x="26" y="15" class="st0" width="140" height="35"/>
	<g>
		<path class="st1" d="M97.3,37.1c0,2.8,1.3,4,3.9,4c2.5,0,3.9-1.4,3.9-4c0-2.8-1.3-4-3.9-4S97.3,34.4,97.3,37.1z M103.6,37.1
			c0,2-0.8,3-2.4,3s-2.4-1-2.4-3c0-2,0.8-2.9,2.4-2.9S103.6,35.1,103.6,37.1z"/>
		<path class="st1" d="M122.5,34.2c0.7,0,1.4,0.1,2.1,0.2v-1.2c-0.7-0.1-1.4-0.2-2.2-0.2c-3,0-4.4,1.3-4.4,3.9
			c0,2.9,1.5,4.3,4.4,4.3c0.8,0,1.5-0.1,2.2-0.2v-1.2c-0.7,0.1-1.4,0.2-2.1,0.2c-2.1,0-3.1-1-3.1-3.1
			C119.4,35.1,120.4,34.2,122.5,34.2z"/>
		<path class="st1" d="M125.9,37.1c0,2.8,1.3,4,3.9,4c2.5,0,3.9-1.4,3.9-4c0-2.8-1.3-4-3.9-4S125.9,34.4,125.9,37.1z M132.2,37.1
			c0,2-0.8,3-2.4,3c-1.6,0-2.4-1-2.4-3c0-2,0.8-2.9,2.4-2.9C131.4,34.2,132.2,35.1,132.2,37.1z"/>
		<path class="st1" d="M113.5,41.2v-5.1c0-2.1-0.9-3-2.8-3c-1,0-2,0.3-3,1l-0.2-1h-1v8.2h1.4v-5.9c0.7-0.7,1.5-1,2.3-1
			c1.2,0,1.8,0.6,1.8,1.8v5.2h1.5V41.2z"/>
		<path class="st1" d="M146.7,41.2v-5.5c-0.1-1.7-1-2.6-2.5-2.6c-0.9,0-1.8,0.3-2.9,1.2c-0.5-0.7-1.2-1.2-2.2-1.2
			c-0.9,0-1.8,0.3-2.8,1l-0.2-1h-0.9v8.2h1.4v-5.9c0.7-0.7,1.4-1,2.2-1c1,0,1.5,0.6,1.5,1.8v5.1h1.4v-5.9c0.7-0.7,1.4-1,2.2-1
			c1,0,1.5,0.6,1.5,1.8v5.2L146.7,41.2L146.7,41.2z"/>
		<rect x="115" y="39.7" class="st1" width="1.4" height="1.4"/>
		<rect x="94.4" y="30" class="st1" width="1.4" height="1.2"/>
		<path class="st1" d="M92.9,34.2V33h-1.8l-0.3-1.3h-0.9V39c0,1.5,0.7,2.2,2.1,2.2h1v-1.2h-0.7c-0.7,0-1-0.3-1-1.2v-4.7
			C91.2,34.2,92.9,34.2,92.9,34.2z"/>
		<polygon class="st1" points="66.5,32 66.5,29.1 66.2,29.1 63.9,32 63.9,32 		"/>
		<path class="st1" d="M50.2,35.1c-1.6,1-3.6,2.5-5.6,4v2.1h5.2V39h-1c0,0,4.5-3.1,5.8-4.1c1.2-1,1.7-2.1,1.8-3.9
			c0-1.5-0.7-2.5-1.8-3.1c-1.2-0.7-2.6-1-4.4-1l0,0H50c-2.2,0-3.7,0.2-5.1,0.6v2.3c1.5-0.3,2.9-0.6,4.4-0.6c0.9,0,1.7,0.1,2.4,0.3
			c0.7,0.3,1.3,0.9,1.3,1.8c0,0.7-0.3,1.3-0.8,1.8C51.7,34,51,34.5,50.2,35.1z"/>
		<rect x="50.2" y="39" class="st1" width="5.9" height="2.2"/>
		<polygon class="st1" points="62.6,26.8 56.7,34.3 56.7,37.6 60.5,37.6 60.5,35.5 59.1,35.5 66,26.8 		"/>
		<rect x="94.4" y="33" class="st1" width="1.4" height="8.2"/>
		<path class="st1" d="M81,33.4v10.8h1.4v-3.5c0.6,0.2,1.3,0.3,1.8,0.3c2.6,0,3.9-1.4,3.9-4.3c0-2.5-1.3-3.9-3.9-3.9
			C83.2,33,82.2,33.2,81,33.4z M86.9,36.8c0,2.1-0.8,3.1-2.5,3.1c-0.7,0-1.4-0.1-1.8-0.5v-5.1c0.6-0.1,1.2-0.2,2-0.2
			C86.1,34.2,86.9,35.1,86.9,36.8z"/>
		<path class="st1" d="M71.8,37.1c0,2.8,1.3,4,3.9,4c2.5,0,3.9-1.4,3.9-4c0-2.8-1.3-4-3.9-4S71.8,34.4,71.8,37.1z M78.2,37.1
			c0,2-0.8,3-2.4,3s-2.4-1-2.4-3c0-2,0.8-2.9,2.4-2.9S78.2,35.1,78.2,37.1z"/>
		<polygon class="st1" points="66.5,41.2 66.5,37.6 69.8,37.6 69.8,35.5 66.5,35.5 66.5,32.5 63.9,32.5 63.9,35.5 60.9,35.5 
			60.9,37.6 63.9,37.6 63.9,41.2 		"/>
	</g>
</g>
</svg>
