<svg id="Livello_1" data-name="Livello 1" xmlns="http://www.w3.org/2000/svg" viewBox="0 0 300 75.76"><defs><style>.cls-1{fill:#4f4f4f;}.cls-2{fill:#7f7f7f;}.cls-3{fill:#fff;}</style></defs><title>osonyq-gray</title><path class="cls-1" d="M53.14,51a19.47,19.47,0,0,1,5.31-9.75,36,36,0,0,0,12.43,1.87c3.75,0,6-.87,6.37-2.44,0.44-1.94-2.5-2.87-6.19-3.94-6-1.69-13.18-5.62-10.81-15.56,2.06-8.62,8.62-13.06,22.31-13.06,9.5,0,14.31,2.56,14.31,2.56a16.53,16.53,0,0,1-5.19,9.43,43.73,43.73,0,0,0-9.12-1.06c-4.5,0-6.87.94-7.25,2.62-0.56,2.37,4.56,3.37,9.56,5.12,7,2.44,9.81,7.06,7.81,14.75-2.44,9.68-10.06,13.06-23,13.06C58.7,54.55,53.14,51,53.14,51"/><path class="cls-1" d="M97.87,30c3.81-16,13.18-21.74,26.8-21.74s20.43,8.43,16.62,24.62-13.25,21.68-26.8,21.68S94.12,46.18,97.87,30M126,31.43c2.56-10.81,1.06-13.25-3.25-13.25s-6.87,2.44-9.43,13.25-0.94,13.25,3.25,13.25c4.37-.06,6.94-2.5,9.43-13.25"/><path class="cls-1" d="M141.48,53.12L151.67,9.75a67.85,67.85,0,0,1,10.12-.56,53.56,53.56,0,0,1,9.5.56L173,25a103.9,103.9,0,0,1,.31,17.93H174c1.06-6.5,2.12-13.62,3.06-17.74l3.69-15.43a38.27,38.27,0,0,1,6.44-.56,24.91,24.91,0,0,1,5.94.56L182.91,53.12a61.89,61.89,0,0,1-9.87.56,69.7,69.7,0,0,1-9.81-.56L161.17,37.5a114.11,114.11,0,0,1-.5-16.24h-0.75c0,0.12-1.37,11.31-2.44,16.06l-3.75,15.81a30,30,0,0,1-6.44.56,21.9,21.9,0,0,1-5.81-.56"/><path class="cls-1" d="M201.28,53.12L205,37.68,195.9,9.75a53.88,53.88,0,0,1,8.62-.56,44.71,44.71,0,0,1,7.62.56l1.62,5.56a39.25,39.25,0,0,1,1.31,11.87h0.56a63.72,63.72,0,0,1,7.06-12l4.12-5.44a51.67,51.67,0,0,1,7.81-.56,42.93,42.93,0,0,1,7.62.56L219.65,37.87,216,53.12a39.66,39.66,0,0,1-7.5.56,32.93,32.93,0,0,1-7.25-.56"/><path class="cls-2" d="M183.53,61.36V61.8L183,65.92a2.59,2.59,0,0,1-2.62,2.31h-1.87l-0.62,4.56a0.32,0.32,0,0,1-.37.31h-1.19a0.27,0.27,0,0,1-.31-0.37l1.81-12.93a0.32,0.32,0,0,1,.37-0.31h3.5a1.77,1.77,0,0,1,1.87,1.87m-1.94.37a0.71,0.71,0,0,0-.87-0.75h-1.37l-0.81,5.62h1.37a1,1,0,0,0,1.12-1l0.5-3.69a0.27,0.27,0,0,0,.06-0.19"/><path class="cls-2" d="M185.47,71.3V70.86L187,59.74a0.32,0.32,0,0,1,.37-0.31h1.19a0.27,0.27,0,0,1,.31.37l-1.5,10.87v0.25a0.73,0.73,0,0,0,.87.75h0.37a1,1,0,0,0,1.12-1l1.5-10.87a0.32,0.32,0,0,1,.37-0.31h1.19a0.27,0.27,0,0,1,.31.37l-1.56,11.06a2.6,2.6,0,0,1-2.69,2.31h-1.5a1.84,1.84,0,0,1-1.94-1.94"/><path class="cls-2" d="M202.59,61.36V61.8l-0.37,2.62a2.49,2.49,0,0,1-1.75,2.12,1.5,1.5,0,0,1,1.19,1.56,1.06,1.06,0,0,1-.06.44L201,72.8a0.32,0.32,0,0,1-.37.31H199.4a0.27,0.27,0,0,1-.31-0.37l0.62-4.5V68a0.71,0.71,0,0,0-.87-0.75h-1.37l-0.75,5.56a0.32,0.32,0,0,1-.37.31h-1.19a0.27,0.27,0,0,1-.31-0.37l1.81-12.93a0.32,0.32,0,0,1,.37-0.31h3.5a1.83,1.83,0,0,1,2.06,1.87m-1.94.37a0.73,0.73,0,0,0-.87-0.75H198.4l-0.69,4.69h1.37a1,1,0,0,0,1.12-1l0.37-2.75c0.06,0,.06-0.12.06-0.19"/><path class="cls-2" d="M211.34,59.8l-0.12.87a0.32,0.32,0,0,1-.37.31H208l-0.62,4.31h2.5a0.27,0.27,0,0,1,.31.37l-0.12.87a0.32,0.32,0,0,1-.37.31h-2.56l-0.69,4.69h2.81a0.27,0.27,0,0,1,.31.37l-0.12.87a0.32,0.32,0,0,1-.37.31h-4.37a0.27,0.27,0,0,1-.31-0.37l1.81-12.93a0.32,0.32,0,0,1,.37-0.31h4.37c0.37,0,.5.12,0.44,0.31"/><path class="cls-2" d="M225.77,61.36V61.8l-0.56,4.12a2.59,2.59,0,0,1-2.62,2.31h-1.87l-0.62,4.56a0.32,0.32,0,0,1-.37.31H218.4a0.27,0.27,0,0,1-.31-0.37L219.9,59.8a0.32,0.32,0,0,1,.37-0.31h3.5a1.78,1.78,0,0,1,2,1.87m-1.94.37A0.71,0.71,0,0,0,223,61h-1.37l-0.81,5.62h1.37a1,1,0,0,0,1.12-1l0.5-3.69c0.06,0,.06-0.06.06-0.19"/><path class="cls-2" d="M227.64,71.3V70.92L229,61.74a2.59,2.59,0,0,1,2.62-2.31h1.5a1.86,1.86,0,0,1,2.06,1.87v0.44l-1.31,9.18a2.6,2.6,0,0,1-2.69,2.31h-1.5a1.89,1.89,0,0,1-2-1.94m3.19,0.37a1,1,0,0,0,1.12-1l1.25-8.75V61.68a0.73,0.73,0,0,0-.87-0.75H232a1,1,0,0,0-1.12,1l-1.25,8.75v0.25a0.73,0.73,0,0,0,.87.75h0.37Z"/><path class="cls-2" d="M247.33,59.49h1.12a0.27,0.27,0,0,1,.31.37l-3.25,13a0.4,0.4,0,0,1-.37.31h-1.75c-0.25,0-.31-0.12-0.31-0.37l0.06-8.87,0.06-1.25h0l-0.31,1.25-2.44,8.93a0.4,0.4,0,0,1-.37.31h-1.81C238,73.17,238,73,238,72.8l0.44-12.93a0.32,0.32,0,0,1,.37-0.31H240a0.27,0.27,0,0,1,.31.37L239.7,70.17h0.06l2.81-10.31a0.4,0.4,0,0,1,.37-0.31h1.44a0.27,0.27,0,0,1,.31.37l-0.06,10.25h0.06L247,59.86c0-.31.12-0.37,0.31-0.37"/><path class="cls-2" d="M257,59.8l-0.12.87a0.32,0.32,0,0,1-.37.31h-2.87L253,65.3h2.5a0.27,0.27,0,0,1,.31.37l-0.12.87a0.32,0.32,0,0,1-.37.31h-2.56l-0.69,4.69h2.81a0.27,0.27,0,0,1,.31.37l-0.12.87a0.32,0.32,0,0,1-.37.31h-4.37a0.27,0.27,0,0,1-.31-0.37l1.81-12.93a0.32,0.32,0,0,1,.37-0.31h4.37c0.37,0,.5.12,0.44,0.31"/><path class="cls-2" d="M266.19,61.36V61.8l-0.37,2.62a2.49,2.49,0,0,1-1.75,2.12,1.5,1.5,0,0,1,1.19,1.56,1.06,1.06,0,0,1-.06.44l-0.62,4.25a0.32,0.32,0,0,1-.37.31H263a0.27,0.27,0,0,1-.31-0.37l0.62-4.5V68a0.71,0.71,0,0,0-.87-0.75h-1.37l-0.75,5.56a0.32,0.32,0,0,1-.37.31h-1.19a0.27,0.27,0,0,1-.31-0.37l1.81-12.93a0.32,0.32,0,0,1,.37-0.31h3.5a1.8,1.8,0,0,1,2.06,1.87m-1.94.37a0.73,0.73,0,0,0-.87-0.75H262l-0.69,4.69h1.37a1,1,0,0,0,1.12-1l0.37-2.75c0.06,0,.06-0.12.06-0.19"/><path class="cls-1" d="M40.2,21.13c0.44,2,.19,5.19-1.06,10.31C36.64,42.18,34,44.68,29.71,44.68S24,42.18,26.46,31.43s5.25-13.25,9.43-13.25h0c3.5-.87,6.56-4.12,9.37-8.87a24.54,24.54,0,0,0-7.44-1.06C24.15,8.25,14.77,14,11,30,7.28,46.18,14,54.55,27.65,54.55s23.12-5.5,26.8-21.68A28.86,28.86,0,0,0,55,20.19c-3.75,3.87-8.87,4.19-14.81.94"/><path class="cls-1" d="M275.69,44.62l-0.5-.69a34.06,34.06,0,0,0,4.37-11.06c3.81-16.18-3-24.62-16.62-24.62S239.89,14,236.14,30c-3.75,16.18,3,24.55,16.62,24.55a34.27,34.27,0,0,0,11.06-1.62c-2.75-4.44-5.69-7.44-9-8.31,4.81,0.37,9.62,5,14.5,11.87,4.37,6.19,13.12,4,20.68-.81-4.81-.5-9.5-4.31-14.31-11.06m-20.87,0c-4.19,0-5.75-2.5-3.25-13.25s5.25-13.25,9.43-13.25c4.37,0,5.87,2.44,3.25,13.25a38,38,0,0,1-3.19,9.37,28.88,28.88,0,0,0-6.25,3.87h0Z"/><path class="cls-2" d="M71.07,7.13c-4.75.5-9.43,4.31-14.25,11.06s-12.18,6.87-20.87,0c4.81-.37,9.62-5,14.5-11.87,4.31-6.19,13.06-4,20.62.81"/><path class="cls-3" d="M283.88,3.63a4.4,4.4,0,0,1,4.56,4.56,4.56,4.56,0,1,1-9.12,0,4.43,4.43,0,0,1,4.56-4.56m0,8.43a3.73,3.73,0,0,0,3.81-3.87,3.81,3.81,0,1,0-7.62,0,3.69,3.69,0,0,0,3.81,3.87m-0.25-3.62h-0.37v2.44a0.17,0.17,0,0,1-.19.19h-0.31a0.17,0.17,0,0,1-.19-0.19V5.38a0.17,0.17,0,0,1,.19-0.19h1a1.3,1.3,0,0,1,1.56,1.56V6.82a1.34,1.34,0,0,1-.87,1.56l1.06,2.44a0.16,0.16,0,0,1-.12.25h-0.44a0.26,0.26,0,0,1-.25-0.19Zm-0.37-.62h0.5a0.74,0.74,0,0,0,.81-0.94V6.82a0.74,0.74,0,0,0-.81-0.94h-0.5V7.82Z"/></svg>