<svg id="Livello_1" data-name="Livello 1" xmlns="http://www.w3.org/2000/svg" xmlns:xlink="http://www.w3.org/1999/xlink" viewBox="0 0 300 75"><defs><style>.cls-1{fill:none;}.cls-2{clip-path:url(#clip-path);}.cls-3{fill:#4f4f4f;}</style><clipPath id="clip-path"><path class="cls-1" d="M84.8,18.89a0.63,0.63,0,0,0-.73.7v4.64a0.65,0.65,0,0,0,.59.7H92.5V48.64H83a0.67,0.67,0,0,0-.73.73V54a0.63,0.63,0,0,0,.73.7h26.11a0.63,0.63,0,0,0,.73-0.7v-4.6a0.67,0.67,0,0,0-.59-0.73H98.51V19.58a0.65,0.65,0,0,0-.59-0.7H84.8Zm116.6,0a0.63,0.63,0,0,0-.73.7v4.64a0.65,0.65,0,0,0,.59.7h7.84V48.64h-9.47a0.67,0.67,0,0,0-.73.73V54a0.63,0.63,0,0,0,.73.7h26.11a0.63,0.63,0,0,0,.73-0.7v-4.6a0.67,0.67,0,0,0-.59-0.73H215.13V19.58a0.65,0.65,0,0,0-.6-0.7H201.4Zm89.5-.17a1,1,0,0,0-1.13.74h0L279.61,46.23,269.12,19.61a1.11,1.11,0,0,0-1.18-.91h-4.36a0.79,0.79,0,0,0-.85.85,1.44,1.44,0,0,0,.11.51h0l13.57,34.59-1.18,3.07a30.17,30.17,0,0,1-2.27,5,4.84,4.84,0,0,1-2.26,2,3.83,3.83,0,0,1-1.74.41,3.9,3.9,0,0,1-.73-0.07,18.65,18.65,0,0,1-2.68-.79,4.38,4.38,0,0,0-1.39-.44,0.81,0.81,0,0,0-.85.91v4a1.41,1.41,0,0,0,.87,1.36,11.42,11.42,0,0,0,5.28,1.14,10.06,10.06,0,0,0,4.78-1.57,12.65,12.65,0,0,0,3.9-3.83,18.67,18.67,0,0,0,1.37-2.45c0.85-1.82,13.78-36,16.49-43.25a1.64,1.64,0,0,0,.09-0.58,0.75,0.75,0,0,0-.7-0.79h-0.15ZM166.56,23V19.89a0.61,0.61,0,0,0-.52-0.7h-4.76a0.63,0.63,0,0,0-.73.7V54.26a0.63,0.63,0,0,0,.73.7h4.59a0.61,0.61,0,0,0,.69-0.7V33.15a8.8,8.8,0,0,1,17.6,0V54.26h0a0.65,0.65,0,0,0,.6.7h4.74a0.61,0.61,0,0,0,.69-0.7V33h0a14.65,14.65,0,0,0-3.94-10.12c-2.5-2.73-6.84-4.33-10.74-4.33A10.41,10.41,0,0,0,166.59,23m-140,5.56c0,6.17,3.22,9.24,11.12,10.61l0.22,0c5.4,1,9.3,1.65,9.3,5.54,0,3.3-3.82,4.8-7.38,4.8-4.41,0-7.13-2.12-7.66-6a0.91,0.91,0,0,0-1-.94H26.75a0.92,0.92,0,0,0-1,1c0,6.87,5.71,11.66,13.89,11.66S53.54,50.7,53.54,44.08c0-7.24-6.39-8.91-12.38-9.91-7.51-1.24-8.54-3.41-8.54-5.57,0-3.34,3.54-4.52,6.54-4.52,4.11,0,6.57,1.57,7.32,4.67a0.94,0.94,0,0,0,1,.91h3.91a0.92,0.92,0,0,0,1-1c0-6.18-5.33-10.33-13.26-10.33-8.58,0-12.49,5.32-12.49,10.26M130.17,18.23c-8.11,1.65-14.25,9.25-14.25,18.38,0,10.34,7.87,18.72,17.57,18.72a16.89,16.89,0,0,0,11.6-4.67V55c0,6.86-3.59,10.63-10.11,10.63-4.93,0-7.94-2-8.95-6a1,1,0,0,0-1-.93h-4a0.91,0.91,0,0,0-1,1c0.67,7,6.69,11.65,15,11.65,9.67,0,16.17-6.46,16.17-16.07V19.64a0.63,0.63,0,0,0-.73-0.7h-4.59a0.7,0.7,0,0,0-.7.7v3a17.13,17.13,0,0,0-8.2-4.33,0.54,0.54,0,0,0-.65.52v5.41a0.54,0.54,0,0,0,.39.51,12.37,12.37,0,0,1,8.69,12.07c0,6.9-5.22,12.49-11.67,12.49S122,43.71,122,36.81a12.41,12.41,0,0,1,8.39-12,0.54,0.54,0,0,0,.39-0.51V18.8a0.53,0.53,0,0,0-.52-0.53h-0.1M91,8a4.9,4.9,0,1,0,4.9-4.9A4.9,4.9,0,0,0,91,8h0m116.6,0a4.9,4.9,0,1,0,4.9-4.9,4.9,4.9,0,0,0-4.9,4.9h0m29.58,6.3v4.55h-7.36a0.91,0.91,0,0,0-1,1v3.77a0.91,0.91,0,0,0,.78,1h7.59v29a0.91,0.91,0,0,0,.78,1h4.21a0.91,0.91,0,0,0,1-1v-29h11.42a0.91,0.91,0,0,0,1-1V19.9a0.9,0.9,0,0,0-1-1H243.2V14.34c0-3.74,1.89-6,5.06-6a10.83,10.83,0,0,1,6.59,2.18,1.06,1.06,0,0,0,.67.19,0.86,0.86,0,0,0,.79-1V6a1.44,1.44,0,0,0-.71-1.46,13.93,13.93,0,0,0-7.76-2c-7.35,0-10.63,6.09-10.63,11.76M35.74,2H35.65a35.66,35.66,0,1,0,7.87,0H43.28a1,1,0,0,0-.71.24,0.84,0.84,0,0,0-.23.64v4.6h0a0.47,0.47,0,0,0,.39.5,29.64,29.64,0,1,1-6.3,0,0.47,0.47,0,0,0,.39-0.5h0V2.83a0.84,0.84,0,0,0-.23-0.64,1,1,0,0,0-.71-0.24H35.73"/></clipPath></defs><title>signify-gray-01</title><g class="cls-2"><polygon class="cls-3" points="-29.5 25.34 199.97 -135.33 329.5 49.67 100.04 210.34 -29.5 25.34"/></g></svg>