<svg id="Ebene_1" data-name="Ebene 1" xmlns="http://www.w3.org/2000/svg" viewBox="0 0 140 35"><defs><style>.cls-1{fill:#4f4f4f;}.cls-2{fill:none;}</style></defs><title>randstad_grey</title><g id="layer1"><g id="g31225"><path id="path38" class="cls-1" d="M16,15.77l-4.4-4.4a1.53,1.53,0,0,0-1-.4H3.23v2.8h8.1a2,2,0,0,1,1.6.7,2.13,2.13,0,0,1,.7,1.6v8.1h2.8v-7.4a0.86,0.86,0,0,0-.4-1"/><path id="path42" class="cls-1" d="M23.93,11a1.28,1.28,0,0,0-1,.4l-4.4,4.4a1.53,1.53,0,0,0-.4,1v7.4h2.8v-8.1a2.4,2.4,0,0,1,2.3-2.3h8.1V11h-7.4"/><path id="path46" class="cls-1" d="M50.63,10.57a4.1,4.1,0,0,0-3.4,2.3H47v-2.1h-2.2V24h2.3v-6.1c0-3.4,1.5-5.6,3.8-5.6a4.44,4.44,0,0,1,1.3.2v-2.1a2.12,2.12,0,0,1-1.6.2"/><path id="path50" class="cls-1" d="M121,12a5.63,5.63,0,0,0-4-1.2,9.12,9.12,0,0,0-4.4,1.2l0.1,1.9a6.23,6.23,0,0,1,3.8-1.3,3.15,3.15,0,0,1,2.5.8,3.76,3.76,0,0,1,.8,2.8v0.1h-2.6a8,8,0,0,0-5.1,1.7,3.58,3.58,0,0,0-1.1,2.5,4,4,0,0,0,1.1,2.9,5.25,5.25,0,0,0,3.8,1.2,5.72,5.72,0,0,0,4.1-1.9h0.1v1.7h2.1v-8.1C122.33,14.07,121.93,12.77,121,12Zm-1,5.8V19a3.38,3.38,0,0,1-1,2.5,3.93,3.93,0,0,1-2.8,1.1,2.49,2.49,0,0,1-1.9-.7,2.2,2.2,0,0,1-.6-1.5c0-2.4,3.3-2.7,4.7-2.7h0.7a2.77,2.77,0,0,0,.9.1h0"/><path id="path54" class="cls-1" d="M61.63,12a5.63,5.63,0,0,0-4-1.2,9.12,9.12,0,0,0-4.4,1.2l0.1,1.9a6.23,6.23,0,0,1,3.8-1.3,3.15,3.15,0,0,1,2.5.8,3.76,3.76,0,0,1,.8,2.8v0.1h-2.6a8,8,0,0,0-5.1,1.7,3.58,3.58,0,0,0-1.1,2.5,4,4,0,0,0,1.1,2.9,5.25,5.25,0,0,0,3.8,1.2,5.72,5.72,0,0,0,4.1-1.9h0.1v1.7h2.1v-8.1C62.93,14.07,62.53,12.77,61.63,12Zm-1,5.8V19a3.38,3.38,0,0,1-1,2.5,3.93,3.93,0,0,1-2.8,1.1,2.49,2.49,0,0,1-1.9-.7,2.2,2.2,0,0,1-.6-1.5c0-2.4,3.3-2.7,4.7-2.7h0.7c0.2,0,.6.1,0.9,0.1h0"/><path id="path58" class="cls-1" d="M75.33,11.77a4.64,4.64,0,0,0-3.5-1.2,5.09,5.09,0,0,0-4.4,2.4h-0.2v-2.1H65v13.2h2.3V18a7.61,7.61,0,0,1,1-4,3.53,3.53,0,0,1,3.2-1.6c2.1,0.1,2.9,1.5,2.9,4.8v6.9h2.3v-7.9a5.59,5.59,0,0,0-1.4-4.4"/><path id="path62" class="cls-1" d="M97.63,16.57c-1.2-.6-2.4-1.1-2.4-2.4,0-1.1,1-1.7,2.4-1.7a6.08,6.08,0,0,1,2.5.6l0.2-1.9a14.46,14.46,0,0,0-3-.5,4.89,4.89,0,0,0-3.5,1.2,3.76,3.76,0,0,0-1.1,2.8c0,2.1,1.7,2.9,3.3,3.6,1.2,0.6,2.4,1.2,2.4,2.3a1.54,1.54,0,0,1-.5,1.3,3.27,3.27,0,0,1-2.1.7,7,7,0,0,1-3-.8l-0.1,2.1a7.8,7.8,0,0,0,3.5.7,5.78,5.78,0,0,0,3.2-1,3.56,3.56,0,0,0,1.5-3c0-2.5-1.7-3.3-3.3-4"/><path id="path66" class="cls-1" d="M108.93,22.77a2,2,0,0,1-1.5-.6,2.49,2.49,0,0,1-.7-1.9v-7.5h3.5V11h-3.5V7.07l-2.3.7V11h-3v1.8h3v7.9a4,4,0,0,0,1,2.8,4,4,0,0,0,3,1,6.54,6.54,0,0,0,2.1-.4v-1.9a3.14,3.14,0,0,1-1.6.6"/><path id="path70" class="cls-1" d="M134.33,4.67v8.1h-0.1c-0.8-1.5-2.3-2.1-4.4-2.1a5,5,0,0,0-3.8,1.5,7.15,7.15,0,0,0-1.8,5.2,8.15,8.15,0,0,0,1.9,5.7,4.91,4.91,0,0,0,3.6,1.5,5.17,5.17,0,0,0,4.5-2.2h0.1v1.8h2.2V4.67h-2.2Zm0,13a6,6,0,0,1-1.5,4.1,3.38,3.38,0,0,1-4.8,0,6.14,6.14,0,0,1-1.5-4.1,6.28,6.28,0,0,1,1.3-4.1,3.49,3.49,0,0,1,2.4-1,3.58,3.58,0,0,1,2.5,1.1c1.2,0.8,1.6,2.3,1.6,4"/><path id="path74" class="cls-1" d="M88.83,4.67v8.1h-0.1c-0.8-1.5-2.3-2.1-4.4-2.1a5,5,0,0,0-3.8,1.5,7.15,7.15,0,0,0-1.8,5.2,8.15,8.15,0,0,0,1.9,5.7,4.91,4.91,0,0,0,3.6,1.5,5.17,5.17,0,0,0,4.5-2.2h0.1v1.8H91V4.67h-2.2Zm0,13a6,6,0,0,1-1.5,4.1,3.38,3.38,0,0,1-4.8,0,6.14,6.14,0,0,1-1.5-4.1,6.28,6.28,0,0,1,1.3-4.1,3.49,3.49,0,0,1,2.4-1,3.58,3.58,0,0,1,2.5,1.1,4.8,4.8,0,0,1,1.6,4"/></g></g><rect class="cls-2" y="-2" width="140" height="35"/></svg>