<svg id="Ebene_1" data-name="Ebene 1" xmlns="http://www.w3.org/2000/svg" viewBox="0 0 140 35"><defs><style>.cls-1{fill:#4f4f4f;}</style></defs><title>samsung_grey</title><path class="cls-1" d="M74.6,19.3a6.78,6.78,0,0,0-1.7-.8,17.51,17.51,0,0,1-2.4-1.4,1.32,1.32,0,0,1-.3-1.6,0.87,0.87,0,0,1,1-.6,1.05,1.05,0,0,1,1.1,1v1.3h3.9V15.3s0.3-3.1-4.7-3.3c0,0-3.9-.3-5,1.8,0,0-.4.4-0.4,2.1V17a4.3,4.3,0,0,0,.7,2.3,3.77,3.77,0,0,0,1.4,1.1s2,1,3.1,1.7a2.11,2.11,0,0,1,1,1.7,1.13,1.13,0,0,1-1.3,1,1,1,0,0,1-1-1.1V22.4H65.9v1.8s-0.1,3.6,5.3,3.6c0,0,5.1.1,5.4-3.7V22.5C76.3,22.7,76.6,20.4,74.6,19.3Z"/><polygon class="cls-1" points="54.4 12.3 53.1 20.6 52.8 20.6 51.5 12.4 44.8 12.4 44.6 27.4 48.4 27.4 48.6 16.2 48.8 16.2 50.8 27.4 55 27.4 57.1 16.2 57.4 16.2 57.4 27.4 61.4 27.4 60.9 12.3 54.4 12.3"/><polygon class="cls-1" points="31.2 12.4 28.6 27.4 32.8 27.4 34.3 15.7 34.6 15.7 36.2 27.4 40.4 27.4 37.7 12.4 31.2 12.4"/><path class="cls-1" d="M119.1,19v2.3h1.1v2.4a1,1,0,0,1-1,1.1,1.08,1.08,0,0,1-1.1-1.1V15.5c0-.8,1.1-0.8,1.1-0.8a1,1,0,0,1,1,1v1.2h4c0.1-2.4-.3-3-0.3-3-1-2.1-4.7-2.1-4.7-2.1-5.7,0-5.1,4.4-5.1,4.4v8c0.1,4.1,5.7,3.7,5.8,3.7,2.6-.3,3.3-1.1,3.3-1.1a2.32,2.32,0,0,0,.8-1.3c0.1-.4.3-1.7,0.3-1.7V19.1l-5.2-.1h0Z"/><polygon class="cls-1" points="106.1 21.6 105.9 21.6 101.9 12.3 97.1 12.3 97.1 27.4 101.1 27.4 100.8 18.3 100.9 18.3 105.2 27.4 109.7 27.4 109.7 12.3 105.8 12.3 106.1 21.6"/><path class="cls-1" d="M87.6,23.7h0A1.25,1.25,0,0,1,86.4,25a1.08,1.08,0,0,1-1.1-1.1V12.4H81V23.6s-0.4,4.3,5.6,4.3c0,0,5.3,0,5.3-4V12.4H87.6V23.7Z"/><path class="cls-1" d="M23.1,19.3a6.78,6.78,0,0,0-1.7-.8A17.51,17.51,0,0,1,19,17.1a1.32,1.32,0,0,1-.3-1.6,0.87,0.87,0,0,1,1-.6,1.05,1.05,0,0,1,1.1,1v1.3h4V15.3s0.3-3.1-4.7-3.3H19.3s-3,.1-4.1,1.8c0,0-.4.4-0.4,2.1V17a4.3,4.3,0,0,0,.7,2.3,3.77,3.77,0,0,0,1.4,1.1s2,1,3.1,1.7a2.11,2.11,0,0,1,1,1.7,1.13,1.13,0,0,1-1.3,1,1,1,0,0,1-1-1.1V22.4H14.4v1.8s-0.1,3.6,5.3,3.6c0,0,5.1.1,5.4-3.7V22.5C24.8,22.7,25.1,20.4,23.1,19.3Z"/></svg>