<svg id="Layer_1" data-name="Layer 1" xmlns="http://www.w3.org/2000/svg" xmlns:xlink="http://www.w3.org/1999/xlink" viewBox="0 0 144.011 52.2"><defs><style>.cls-1{fill:none;}.cls-2{clip-path:url(#clip-path);}.cls-3{fill:#5a5a5a;}</style><clipPath id="clip-path"><path class="cls-1" d="M11.1,11.3c-6.4.7-9.6,4.5-9.6,9.1,0,3.8,2.7,7.3,7.9,8.3l6.2,1.2c2.2.4,3.4,1,3.4,2.2,0,.9-.9,1.9-3.8,1.9-2.6,0-6.2-.4-8.4-.4s-4.5,1-4.5,5.2a9.852,9.852,0,0,0,.2,1.7,75.626,75.626,0,0,0,14.7.5c6.5-.7,9.7-4.3,9.7-9.2,0-4.2-2.6-7.7-8.6-8.8l-5.9-1c-1.9-.3-3.1-.8-3.1-1.8s1.2-1.8,4.2-1.8,5.5.3,7.2.3c2.2,0,4.4-.9,4.4-5.2a4.954,4.954,0,0,0-.2-1.7c-3.2-.4-6.4-.6-9.6-.7-1.4,0-2.8.1-4.2.2m36.6,3.3L37.8,25.4l7.9,12.5a6.894,6.894,0,0,0,6.5,3.4,13.3,13.3,0,0,0,4.5-.8L47.3,26,54,18.9,65.1,36.3,58.4,50.5a9.954,9.954,0,0,0,3.8.8c3,.1,4.6-1.1,5.8-3.7L83.8,12a9.4,9.4,0,0,0-3.3-.8c-2.1,0-4.8.4-6.6,4.6L68.8,28,58.7,11.5a13.318,13.318,0,0,0-3.4-.5,9.036,9.036,0,0,0-7.6,3.6M35.5.9c-5.2,0-6.1,2.8-6.1,5.4V41.1a10.869,10.869,0,0,0,1.8.1c5.1,0,6.1-1.5,6.1-4.1V1.1A4.966,4.966,0,0,0,35.5.9Z"/></clipPath></defs><title>sky-q_gray</title><g class="cls-2"><rect class="cls-3" width="85.7" height="52.2"/></g><path class="cls-3" d="M132.6,44.989a25.257,25.257,0,0,1-16.267,5.9A24.986,24.986,0,0,1,91.185,26.116a25.146,25.146,0,0,1,50.287,0,24.45,24.45,0,0,1-6.086,16.14l5.781,7.392c.181.23.155.384.031.513-.1.1-.487.478-.487.478a.386.386,0,0,1-.506-.011C140.136,50.584,132.6,45.009,132.6,44.989Zm-.782-6.036a19.675,19.675,0,0,0,4.761-12.833,20.244,20.244,0,0,0-40.484,0,20.117,20.117,0,0,0,20.242,19.941,20.334,20.334,0,0,0,12.958-4.633l-5.4-6.916c-.22-.311-.1-.442.014-.545l.441-.423c.226-.209.436-.006.521.054C124.931,33.641,131.813,38.953,131.813,38.953Z"/></svg>