<?xml version="1.0" encoding="utf-8"?>
<!-- Generator: Adobe Illustrator 21.1.0, SVG Export Plug-In . SVG Version: 6.00 Build 0)  -->
<svg version="1.1" id="Layer_1" xmlns="http://www.w3.org/2000/svg" xmlns:xlink="http://www.w3.org/1999/xlink" x="0px" y="0px"
	 viewBox="0 0 85.7 12.6" style="enable-background:new 0 0 85.7 12.6;" xml:space="preserve">
<style type="text/css">
	.st0{fill:#4F4F4F;}
</style>
<g>
	<path class="st0" d="M82.7,4.2c-0.9,0-1.9,0.3-2.7,0.6c0,0,0.2,0.3,0.3,0.5c0.6,0.7,1.2,0.1,2.4,0.1c0.7,0,1.6,0.2,1.6,1.1
		c0,0.2,0,0.8,0,0.8c-3.4,0-4.9,1-4.9,2.8c0,0.2,0,0.3,0,0.4h0v0c0.2,1.3,1.4,1.9,3.2,1.9c0.6,0,1.3-0.1,1.9-0.4
		c0.4,0.4,0.5,0.3,1.2,0.3l0-1.2v-0.6h0V6.7C85.7,5.1,84.7,4.2,82.7,4.2z M84.2,10.6L84.2,10.6l0,0.3v0.3c-0.5,0.1-1,0.2-1.6,0.2
		c-0.7,0-1.3-0.3-1.5-0.8h0C81,10.4,81,10.3,81,10.1c0-0.9,1-1.5,2.3-1.5c0.6,0,0.6,0,0.9,0V10.6z"/>
	<path class="st0" d="M61.2,4.2c-0.9,0-1.9,0.3-2.7,0.6c0,0,0.2,0.3,0.3,0.5c0.6,0.7,1.2,0.1,2.4,0.1c0.7,0,1.6,0.2,1.6,1.1
		c0,0.2,0,0.8,0,0.8c-3.4,0-4.9,1-4.9,2.8c0,0.2,0,0.3,0,0.4h0v0c0.2,1.3,1.4,1.9,3.2,1.9c0.6,0,1.3-0.1,1.9-0.4
		c0.4,0.4,0.5,0.3,1.2,0.3v-1.2v-0.6h0V6.7C64.1,5.1,63.1,4.2,61.2,4.2z M62.7,10.6L62.7,10.6l0,0.3v0.3c-0.5,0.1-1,0.2-1.6,0.2
		c-0.7,0-1.3-0.3-1.5-0.8h0c-0.1-0.2-0.1-0.3-0.1-0.5c0-0.9,1-1.5,2.3-1.5c0.6,0,0.6,0,0.9,0V10.6z"/>
	<path class="st0" d="M6.5,8.2c0,1.8-0.4,2.1-1.8,2.2c-0.1,0-0.1,0-0.3,0C2.9,10.4,2.6,10,2.6,8.2l0-6.8H0v7.1
		c0,0.8,0.1,1.5,0.3,2.1h0c0.5,1.5,1.8,1.9,4,2c0.1,0,0.3,0,0.4,0c2.2-0.1,3.5-0.5,4.1-2h0C8.9,10.1,9,9.4,9,8.5V1.4H6.5L6.5,8.2z"
		/>
	<path class="st0" d="M18.1,10.6c0.3-0.5,0.5-1.1,0.4-1.7c0-1.6-1-2.2-1.9-2.7c0.4-0.4,0.8-1.1,0.8-2.1c0-2.1-2.1-2.8-4.1-2.8h-2.9
		v9.3h0v1.7h4.5C16.2,12.4,17.5,11.7,18.1,10.6z M12.9,3.3l0.6,0c1.2,0,1.7,0.6,1.7,1.3c0,0.9-0.6,1.3-1.4,1.3h-1V3.3z M13.9,7.4
		c1.5,0,2.2,0.8,2.2,1.5c0,1.1-0.8,1.6-1.9,1.6h-1.2l0-3.1H13.9z"/>
	<path class="st0" d="M76.6,5.5c1.2,0,1.6,0.4,2.2-0.2c0.2-0.3,0.3-0.6,0.3-0.6c-0.8-0.3-1.7-0.5-2.5-0.5c-2.5,0-4.1,1.7-4.1,4.2
		c0,0.8,0.2,1.6,0.6,2.2h0c0.7,1.2,2.1,1.9,3.7,1.9c0.8,0,1.6-0.2,2.3-0.5l-0.4-1.1c-0.5,0.2-1.1,0.4-1.8,0.4
		c-0.7,0-1.3-0.2-1.8-0.7h0c-0.5-0.5-0.9-1.3-0.9-2.2C74.1,6.9,74.9,5.5,76.6,5.5z"/>
	<path class="st0" d="M68.6,4.2c-0.7,0-1.5,0.2-2.2,0.8c0-0.1-0.1-0.2-0.1-0.2S66,4.1,65.1,4.4v0.3v5.9l0,1.8h1.5v-1.8h0V6.4
		c0-0.1,0-0.2,0-0.2c0.6-0.4,1.3-0.7,1.9-0.7c1.2,0,1.8,0.6,1.8,1.8v3.4v1.8h1.5v-1.8V7C71.8,5.1,70.3,4.2,68.6,4.2z"/>
	<path class="st0" d="M21.6,1.2c-0.2,0-0.5,0.1-0.8,0.2c-0.6,0.2-1.2,0.7-1.2,1.6l0,7.6l0,1.8h2.6l0-1.8h0l0-9.4
		C22.3,1.2,21.8,1.2,21.6,1.2z"/>
	<path class="st0" d="M55.1,5.9c0.5-0.4,0.9-1.1,0.9-2c0-2-1.6-2.5-3.7-2.5h-2.2l0,9.2h0v1.8h3.8c1.3,0,2.4-0.6,3-1.8h0
		c0.2-0.5,0.4-1,0.4-1.6C57.3,7.2,56.4,6.5,55.1,5.9z M51.8,2.8l0.6,0c0.9,0,2.2,0,2.1,1.4c-0.1,1.4-1.1,1.5-1.6,1.5h-1.1V2.8z
		 M54.8,10.6L54.8,10.6c-0.4,0.3-0.9,0.5-1.3,0.5h-1.7v-0.5h0V6.8h1c1.3,0,2.7,0.3,2.7,2.3C55.6,9.8,55.2,10.3,54.8,10.6z"/>
</g>
<polygon id="polygon10" class="st0" points="40.7,6.3 47.3,9.1 47.3,12.6 36.6,8 36.6,6.3 "/>
<polygon id="polygon94" class="st0" points="31.9,6.5 25.3,3.7 25.3,0.2 36,4.7 36,6.5 "/>
<path class="st0" d="M31.9,6.4l-4.6,1.9c-1.5,0.7-1.8,2.1-1.8,3.1c0,0.6,0.1,1.1,0.1,1.1L36,8.2V4.7L31.9,6.4z M36.6,4.6l0,3.4
	l9-3.8c1.5-0.7,1.8-2.1,1.8-3.1c0-0.6-0.1-1.1-0.1-1.1L36.6,4.6z"/>
</svg>
